<?xml version="1.0" encoding="utf-8"?>
<!-- Generator: Adobe Illustrator 21.1.0, SVG Export Plug-In . SVG Version: 6.00 Build 0)  -->
<svg version="1.1" id="Layer_1" xmlns="http://www.w3.org/2000/svg" xmlns:xlink="http://www.w3.org/1999/xlink" x="0px" y="0px"
	 viewBox="0 0 1460 788" style="enable-background:new 0 0 1460 788;" xml:space="preserve">
<style type="text/css">
	.st0{fill:#40A629;}
	.st1{fill:none;}
	.st2{fill:#FFFFFF;}
	.st3{fill:none;stroke:#40A629;stroke-width:6.3271;stroke-miterlimit:10;}
	.st4{fill:#4FA0CA;}
	.st5{fill:none;stroke:#C2000B;stroke-width:6.3271;stroke-linecap:square;stroke-linejoin:bevel;}
	.st6{fill:#C2000B;}
	.st7{fill:none;stroke:#C2000B;stroke-width:6.3271;stroke-linecap:square;stroke-linejoin:round;}
	.st8{fill:none;stroke:#BEAC83;stroke-width:6.3271;stroke-linecap:square;stroke-linejoin:bevel;}
	.st9{fill:#BEAC83;}
	.st10{fill:none;stroke:#BEAC83;stroke-width:6.3271;stroke-linejoin:bevel;}
	.st11{fill:none;stroke:#7C411E;stroke-width:6.3271;stroke-linecap:square;stroke-linejoin:bevel;}
	.st12{fill:#7C411E;}
	.st13{fill:none;stroke:#BE894A;stroke-width:6.3271;stroke-linecap:square;stroke-linejoin:bevel;}
	.st14{fill:#BE894A;}
	.st15{fill:none;stroke:#C2000B;stroke-width:6.3271;stroke-miterlimit:10;}
	.st16{fill:none;stroke:#FEA621;stroke-width:6.3271;stroke-linejoin:bevel;}
	.st17{fill:#FEA621;}
	.st18{fill:none;stroke:#FEA621;stroke-width:6.3271;stroke-miterlimit:10;}
	.st19{fill:none;stroke:#C8E5E7;stroke-width:6.3271;stroke-linecap:square;stroke-linejoin:round;}
	.st20{fill:#C8E5E7;}
	.st21{fill:none;stroke:#87B5D1;stroke-width:6.3271;stroke-linecap:square;stroke-linejoin:bevel;}
	.st22{fill:#87B5D1;}
	.st23{fill:none;stroke:#2C8BBB;stroke-width:6.3271;stroke-linecap:square;stroke-linejoin:bevel;}
	.st24{fill:#2C8BBB;}
	.st25{fill:none;stroke:#586A75;stroke-width:6.3271;stroke-linecap:square;stroke-linejoin:bevel;}
	.st26{fill:#586A75;}
	.st27{fill:none;stroke:#586A75;stroke-width:6.3271;stroke-linecap:square;stroke-linejoin:bevel;stroke-miterlimit:10;}
	.st28{fill:none;stroke:#21A8B5;stroke-width:6.3271;stroke-linecap:square;stroke-linejoin:bevel;}
	.st29{fill:#21A8B5;}
	.st30{fill:none;stroke:#293F97;stroke-width:6.3271;stroke-linecap:square;stroke-linejoin:bevel;}
	.st31{fill:#293F97;}
	.st32{fill:none;stroke:#6E92C0;stroke-width:6.3271;stroke-linecap:square;stroke-linejoin:bevel;}
	.st33{fill:#6E92C0;}
	.st34{fill:none;stroke:#7C411E;stroke-width:6.3271;stroke-miterlimit:10;}
	.st35{fill:none;stroke:#4FA0CA;stroke-width:6.3271;stroke-miterlimit:10;}
	.st36{fill:#1A1A1A;}
	.st37{fill:#333333;stroke:#000000;stroke-width:0.2636;stroke-miterlimit:10;}
	.st38{fill:none;stroke:#2E58A6;stroke-width:6.3271;stroke-linecap:square;stroke-linejoin:bevel;}
	.st39{fill:#2E58A6;}
	.st40{font-family:'MyriadPro-Regular';}
	.st41{font-size:18px;}
	.st42{fill:none;stroke:#BE894A;stroke-width:6.1678;stroke-linecap:square;stroke-linejoin:round;}
	.st43{font-size:12px;}
	.st44{font-size:12.383px;}
	.st45{font-size:11.5px;}
</style>
<circle class="st0" cx="41.1" cy="495.9" r="13.2"/>
<rect x="574.7" y="939.5" class="st1" width="108.2" height="28.3"/>
<rect y="0" class="st2" width="1460" height="788"/>
<g>
	<g>
		<line class="st3" x1="174.3" y1="496.1" x2="51.5" y2="496.1"/>
		<g>
			<polygon class="st0" points="165.9,489 173,496.1 165.9,503.2 171.9,503.2 179,496.1 171.9,489 			"/>
		</g>
	</g>
</g>
<g>
	<g>
		<line class="st3" x1="192.6" y1="67.1" x2="192.6" y2="472.7"/>
		<g>
			<polygon class="st0" points="185.5,72.4 192.6,69.4 199.7,72.4 192.6,55.7 			"/>
		</g>
		<g>
			<polygon class="st0" points="185.5,467.3 192.6,470.3 199.7,467.3 192.6,483.9 			"/>
		</g>
	</g>
</g>
<circle class="st0" cx="192.6" cy="43.8" r="13.2"/>
<circle class="st0" cx="192.2" cy="497.1" r="13.2"/>
<circle class="st4" cx="1104.1" cy="40.9" r="13.2"/>
<circle class="st4" cx="1106.5" cy="181.3" r="13.2"/>
<circle class="st4" cx="1104.1" cy="308.5" r="13.2"/>
<circle class="st4" cx="1104.1" cy="440.4" r="13.2"/>
<circle class="st4" cx="1104.1" cy="576" r="13.2"/>
<g>
	<g>
		<polyline class="st5" points="472.7,116.9 280.4,116.9 280.4,497.1 248.4,497.1 		"/>
		<g>
			<polygon class="st6" points="467.4,109.9 470.4,116.9 467.4,123.9 484.1,116.9 			"/>
		</g>
	</g>
</g>
<g>
	<g>
		<polyline class="st7" points="478.9,724.5 287.2,724.5 205,724.5 		"/>
		<g>
			<polygon class="st6" points="473.6,717.4 476.6,724.5 473.6,731.4 490.3,724.5 			"/>
		</g>
	</g>
</g>
<g>
	<g>
		<polyline class="st8" points="497.2,105.5 497.2,91.6 801.9,91.6 801.9,94.3 		"/>
		<g>
			<polygon class="st9" points="794.8,89 801.9,92 808.9,89 801.9,105.7 			"/>
		</g>
	</g>
</g>
<g>
	<g>
		<polyline class="st10" points="725.7,94.2 725.7,171.5 801.9,171.5 801.9,179.9 		"/>
		<g>
			<polygon class="st9" points="794.8,174.7 801.9,177.6 808.9,174.7 801.9,191.3 			"/>
		</g>
	</g>
</g>
<g>
	<g>
		<polyline class="st10" points="725.7,166.9 725.7,251.3 801.9,251.3 801.9,260.9 		"/>
		<g>
			<polygon class="st9" points="794.8,255.5 801.9,258.5 808.9,255.5 801.9,272.2 			"/>
		</g>
	</g>
</g>
<g>
	<g>
		<polyline class="st10" points="725.7,247.5 725.7,332 801.9,332 801.9,341.6 		"/>
		<g>
			<polygon class="st9" points="794.8,336.2 801.9,339.3 808.9,336.2 801.9,352.9 			"/>
		</g>
	</g>
</g>
<g>
	<g>
		<polyline class="st11" points="777.3,285.4 639.6,285.4 639.6,423.4 592.7,423.4 510.4,423.4 		"/>
		<g>
			<polygon class="st12" points="772.1,278.3 775,285.4 772.1,292.4 788.7,285.4 			"/>
		</g>
	</g>
</g>
<g>
	<g>
		<polyline class="st11" points="639.6,285.4 639.6,204.5 777.3,204.5 		"/>
		<g>
			<polygon class="st12" points="772.1,211.5 775,204.5 772.1,197.4 788.7,204.5 			"/>
		</g>
	</g>
</g>
<g>
	<g>
		<line class="st11" x1="777.3" y1="366" x2="639.6" y2="366"/>
		<g>
			<polygon class="st12" points="772.1,359.1 775,366 772.1,373.1 788.7,366 			"/>
		</g>
	</g>
</g>
<g>
	<g>
		<polyline class="st11" points="639.6,423.4 639.6,453.6 777.3,453.6 		"/>
		<g>
			<polygon class="st12" points="772.1,460.6 775,453.6 772.1,446.6 788.7,453.6 			"/>
		</g>
	</g>
</g>
<g>
	<g>
		<polyline class="st13" points="586.4,400.2 801.9,400.2 801.9,390.6 		"/>
		<g>
			<polygon class="st14" points="808.9,395.9 801.9,392.9 794.8,395.9 801.9,379.2 			"/>
		</g>
	</g>
</g>
<g>
	<g>
		<line class="st13" x1="586.4" y1="549.6" x2="778.2" y2="549.6"/>
		<g>
			<polygon class="st14" points="772.8,556.6 775.7,549.6 772.8,542.6 789.5,549.6 			"/>
		</g>
	</g>
</g>
<g>
	<g>
		<line class="st15" x1="497.2" y1="141.4" x2="497.2" y2="398.8"/>
		<g>
			<polygon class="st6" points="490.2,146.7 497.2,143.8 504.3,146.7 497.2,130 			"/>
		</g>
		<g>
			<polygon class="st6" points="490.2,393.6 497.2,396.5 504.3,393.6 497.2,410.2 			"/>
		</g>
	</g>
</g>
<g>
	<g>
		<line class="st15" x1="497" y1="447.2" x2="497" y2="697.3"/>
		<g>
			<polygon class="st6" points="490,452.6 497,449.6 504,452.6 497,435.9 			"/>
		</g>
		<g>
			<polygon class="st6" points="490,692 497,695 504,692 497,708.7 			"/>
		</g>
	</g>
</g>
<g>
	<g>
		<polyline class="st7" points="478.3,132.3 446.3,164.2 446.3,724.5 		"/>
		<g>
			<polygon class="st6" points="469.5,131.1 476.6,134 479.4,141 486.3,124.2 			"/>
		</g>
	</g>
</g>
<g>
	<g>
		<polyline class="st16" points="800.3,472.4 800.3,477.6 800.3,525.1 800.3,530.8 		"/>
		<g>
			<polygon class="st17" points="793.2,477.8 800.3,474.9 807.3,477.8 800.3,461.2 			"/>
		</g>
		<g>
			<polygon class="st17" points="793.2,525.4 800.3,528.3 807.3,525.4 800.3,542 			"/>
		</g>
	</g>
</g>
<g>
	<g>
		<polyline class="st18" points="778.3,217.7 747.6,230.6 747.6,427.6 778.2,439.8 		"/>
		<g>
			<polygon class="st17" points="770.6,213.3 776.1,218.6 776.1,226.2 788.7,213.3 			"/>
		</g>
		<g>
			<polygon class="st17" points="770.6,444.4 776,438.9 775.7,431.3 788.7,444 			"/>
		</g>
	</g>
</g>
<g>
	<g>
		<line class="st18" x1="828.8" y1="408.7" x2="816.2" y2="385.7"/>
		<g>
			<polygon class="st17" points="825,387 817.4,387.8 812.7,393.7 810.9,375.8 			"/>
		</g>
	</g>
</g>
<g>
	<g>
		<line class="st19" x1="815.1" y1="40.9" x2="1079.7" y2="40.9"/>
		<g>
			<polygon class="st20" points="1074.3,48 1077.3,40.9 1074.3,33.9 1090.9,40.9 			"/>
		</g>
	</g>
</g>
<path class="st18" d="M1090.9,440.4"/>
<g>
	<g>
		<polyline class="st21" points="815.1,117.4 1051.7,117.4 1051.7,267.5 1104.1,267.5 1104.1,283.9 		"/>
		<g>
			<polygon class="st22" points="1097.2,278.6 1104.1,281.6 1111.2,278.6 1104.1,295.3 			"/>
		</g>
	</g>
</g>
<g>
	<g>
		<polyline class="st23" points="815.1,204.5 1026.6,204.5 1026.6,308.5 1079.7,308.5 		"/>
		<g>
			<polygon class="st24" points="1074.3,315.4 1077.3,308.5 1074.3,301.4 1090.9,308.5 			"/>
		</g>
	</g>
</g>
<g>
	<g>
		<polyline class="st23" points="1026.6,308.5 1026.6,440.4 1079.7,440.4 		"/>
		<g>
			<polygon class="st24" points="1074.3,447.5 1077.3,440.4 1074.3,433.4 1090.9,440.4 			"/>
		</g>
	</g>
</g>
<g>
	<g>
		<polyline class="st25" points="815.1,285.4 996.5,285.4 996.5,181.3 996.5,160.6 996.5,145.1 996.5,135.7 1106.5,135.7 
			1106.5,156.8 		"/>
		<g>
			<polygon class="st26" points="1099.5,151.5 1106.5,154.5 1113.5,151.5 1106.5,168.1 			"/>
		</g>
	</g>
</g>
<g>
	<g>
		<polyline class="st25" points="1086.3,289.7 1082.9,285.4 996.5,285.4 996.5,417.1 1078,417.1 1086.1,423.9 		"/>
		<g>
			<polygon class="st26" points="1088.5,281.2 1084.8,287.8 1077.4,289.8 1093.4,298.6 			"/>
		</g>
		<g>
			<polygon class="st26" points="1077.4,425.9 1084.3,422.5 1086.5,415.2 1094.7,431.3 			"/>
		</g>
	</g>
</g>
<line class="st27" x1="996.5" y1="417.1" x2="996.5" y2="549.6"/>
<g>
	<g>
		<polyline class="st25" points="996.5,549.6 996.5,695.5 1078,695.5 1089,704.8 		"/>
		<g>
			<polygon class="st26" points="1080.4,706.7 1087.2,703.2 1089.5,695.9 1097.7,712 			"/>
		</g>
	</g>
</g>
<g>
	<g>
		<polyline class="st28" points="815.1,366 968.8,366 968.8,329.6 1081.4,329.6 1086.3,325.2 		"/>
		<g>
			<polygon class="st29" points="1087,334 1084.5,326.7 1077.6,323.6 1094.7,317.6 			"/>
		</g>
	</g>
</g>
<g>
	<g>
		<polyline class="st30" points="815.1,453.6 946,453.6 946,166.9 946,155 1083.2,155 1090.3,163 		"/>
		<g>
			<polygon class="st31" points="1081.4,163.6 1088.7,161.3 1092,154.3 1097.7,171.5 			"/>
		</g>
	</g>
</g>
<g>
	<g>
		<line class="st25" x1="996.5" y1="576" x2="1079.7" y2="576"/>
		<g>
			<polygon class="st26" points="1074.3,583 1077.3,576 1074.3,568.9 1090.9,576 			"/>
		</g>
	</g>
</g>
<g>
	<g>
		<polyline class="st32" points="815.1,549.6 1071.7,549.6 1085.7,560 		"/>
		<g>
			<polygon class="st33" points="1077.1,562.4 1083.8,558.6 1085.6,551.2 1094.7,566.8 			"/>
		</g>
	</g>
</g>
<g>
	<g>
		<polyline class="st32" points="930.7,549.6 930.7,660.5 1130.7,660.5 1130.7,691.4 1130.7,697.9 1123.6,704.3 		"/>
		<g>
			<polygon class="st33" points="1122.9,695.6 1125.4,702.8 1132.3,705.9 1115.3,712 			"/>
		</g>
	</g>
</g>
<g>
	<g>
		<polyline class="st34" points="639.6,453.6 639.6,614.8 1104.1,614.8 1104.1,635.6 1104.1,697.3 		"/>
		<g>
			<polygon class="st12" points="1097.2,692 1104.1,695 1111.2,692 1104.1,708.7 			"/>
		</g>
	</g>
</g>
<g>
	<g>
		<polyline class="st28" points="968.8,366 968.8,743.1 1078,743.1 1088,737.3 		"/>
		<g>
			<polygon class="st29" points="1086.8,746.1 1085.9,738.5 1079.8,734 1097.7,731.6 			"/>
		</g>
	</g>
</g>
<g>
	<g>
		<polyline class="st13" points="801.9,309.8 801.9,315.2 586.4,315.2 586.4,763.2 497.2,763.2 497.2,735 		"/>
		<g>
			<polygon class="st14" points="794.8,315.2 801.9,312.3 808.9,315.2 801.9,298.6 			"/>
		</g>
	</g>
</g>
<g>
	<g>
		<polyline class="st21" points="1051.7,267.5 1051.7,473.2 1104.1,473.2 1104.1,465 		"/>
		<g>
			<polygon class="st22" points="1111.2,470.2 1104.1,467.3 1097.2,470.2 1104.1,453.6 			"/>
		</g>
	</g>
</g>
<g>
	<g>
		<line class="st35" x1="1104.1" y1="321.7" x2="1104.1" y2="415.9"/>
		<g>
			<polygon class="st4" points="1097.2,410.5 1104.1,413.6 1111.2,410.5 1104.1,427.2 			"/>
		</g>
	</g>
</g>
<g>
	<g>
		<polyline class="st16" points="205.4,497.1 248.4,497.1 248.4,66.7 782.9,66.7 791.7,58.1 		"/>
		<g>
			<polygon class="st17" points="792.8,66.9 790.1,59.7 783,56.8 799.8,50.1 			"/>
		</g>
	</g>
</g>
<g>
	<g>
		<line class="st16" x1="205.8" y1="43.8" x2="777.3" y2="43.8"/>
		<g>
			<polygon class="st17" points="772.1,50.9 775,43.8 772.1,36.7 788.7,43.8 			"/>
		</g>
	</g>
</g>
<circle class="st17" cx="801.9" cy="43.4" r="13.2"/>
<circle class="st17" cx="801.9" cy="117.4" r="13.2"/>
<circle class="st17" cx="801.9" cy="204.5" r="13.2"/>
<circle class="st17" cx="801.9" cy="549.6" r="13.2"/>
<g>
	<g>
		<polyline class="st11" points="639.6,204.5 639.6,116.9 777.3,116.9 		"/>
		<g>
			<polygon class="st12" points="772.1,123.9 775,116.9 772.1,109.9 788.7,116.9 			"/>
		</g>
	</g>
</g>
<g>
	<g>
		<line class="st7" x1="472.7" y1="423.4" x2="446.3" y2="423.4"/>
		<g>
			<polygon class="st6" points="467.4,416.3 470.4,423.4 467.4,430.4 484.1,423.4 			"/>
		</g>
	</g>
</g>
<circle class="st17" cx="801.9" cy="285.4" r="13.2"/>
<g>
	<g>
		<line class="st3" x1="192.2" y1="521.7" x2="192.2" y2="699.9"/>
		<g>
			<polygon class="st0" points="185.1,527 192.2,524 199.1,527 192.2,510.3 			"/>
		</g>
		<g>
			<polygon class="st0" points="185.1,694.6 192.2,697.6 199.1,694.6 192.2,711.3 			"/>
		</g>
	</g>
</g>
<rect x="6.9" y="518.6" class="st1" width="75.9" height="12.7"/>
<rect x="101.2" y="48.2" class="st1" width="77.5" height="27.1"/>
<rect x="221.5" y="513.9" class="st1" width="107.2" height="15.7"/>
<rect x="102.3" y="26.9" class="st1" width="77.5" height="27.7"/>
<rect x="221.5" y="656.8" class="st1" width="90.1" height="16"/>
<rect x="220.9" y="676.5" class="st1" width="90.1" height="16"/>
<rect x="221.8" y="697" class="st1" width="90.1" height="16"/>
<circle class="st36" cx="213.2" cy="535.4" r="4.2"/>
<g>
	<rect x="221.6" y="529.3" class="st1" width="61.7" height="19.1"/>
</g>
<circle class="st36" cx="213.6" cy="518.7" r="4.2"/>
<circle class="st36" cx="212.6" cy="662.8" r="4.2"/>
<circle class="st36" cx="212.6" cy="682.8" r="4.2"/>
<circle class="st36" cx="212.6" cy="703.4" r="4.2"/>
<circle class="st6" cx="497.2" cy="116.9" r="13.2"/>
<circle class="st6" cx="497.2" cy="423.4" r="13.2"/>
<circle class="st6" cx="497.2" cy="721.8" r="13.2"/>
<rect x="526.7" y="129.4" class="st1" width="77.5" height="13.6"/>
<rect x="497" y="125.9" class="st1" width="77.5" height="13.6"/>
<rect x="510.3" y="388.1" class="st1" width="67" height="27.5"/>
<circle class="st37" cx="515.3" cy="131.7" r="4.2"/>
<circle class="st37" cx="515.3" cy="150.9" r="4.2"/>
<rect x="508.6" y="679.7" class="st1" width="70.4" height="27.1"/>
<rect x="828.8" y="67.2" class="st1" width="129.2" height="13.6"/>
<rect x="819.4" y="50.1" class="st1" width="115" height="13.9"/>
<circle class="st36" cx="822.4" cy="72.4" r="4.2"/>
<rect x="819.4" y="127.5" class="st1" width="170.7" height="46.3"/>
<rect x="815.9" y="210.9" class="st1" width="136.7" height="56.3"/>
<rect x="849" y="293" class="st1" width="90.9" height="12.9"/>
<rect x="838.8" y="375.1" class="st1" width="107.5" height="24.8"/>
<rect x="824.3" y="488.7" class="st1" width="77.5" height="13.6"/>
<rect x="824.3" y="505.5" class="st1" width="122.1" height="13.6"/>
<rect x="824.3" y="469.8" class="st1" width="107.5" height="10.2"/>
<circle class="st36" cx="816.7" cy="474" r="4.2"/>
<circle class="st36" cx="816.7" cy="494" r="4.2"/>
<circle class="st36" cx="816.7" cy="510.3" r="4.2"/>
<rect x="817.4" y="557.9" class="st1" width="113.1" height="17.9"/>
<rect x="819.7" y="693.2" class="st1" width="101.5" height="30.3"/>
<circle class="st36" cx="822.4" cy="54.4" r="4.2"/>
<g>
	<g>
		<polyline class="st38" points="801.9,734.7 801.9,763.2 1104.1,763.2 1104.1,746.3 		"/>
		<g>
			<polygon class="st39" points="1111.2,751.7 1104.1,748.6 1097.2,751.7 1104.1,735 			"/>
		</g>
	</g>
</g>
<circle class="st4" cx="1106.5" cy="721.8" r="13.2"/>
<rect x="1131.7" y="725.3" class="st1" width="107.5" height="13.6"/>
<g>
	<rect x="1149.8" y="26.3" class="st1" width="98.1" height="10.8"/>
</g>
<rect x="1148.7" y="456.2" class="st1" width="101.5" height="30.3"/>
<g>
	<rect x="1150.3" y="45.4" class="st1" width="116" height="10.8"/>
</g>
<rect x="1131.3" y="178.1" class="st1" width="98.1" height="10.8"/>
<rect x="1148.9" y="276.6" class="st1" width="117.4" height="10.8"/>
<rect x="1147.6" y="328.6" class="st1" width="116" height="26.5"/>
<rect x="1148.9" y="311.7" class="st1" width="98.1" height="10.8"/>
<rect x="1148.9" y="295" class="st1" width="124.9" height="10.8"/>
<rect x="1149.7" y="424" class="st1" width="98.1" height="10.8"/>
<rect x="1150.2" y="440.8" class="st1" width="98.1" height="10.8"/>
<rect x="1149.5" y="456.3" class="st1" width="98.1" height="10.8"/>
<rect x="1149.9" y="473.9" class="st1" width="98.1" height="10.8"/>
<circle class="st36" cx="1135.5" cy="32.5" r="4.2"/>
<circle class="st36" cx="1135.5" cy="50.2" r="4.2"/>
<circle class="st36" cx="1134.7" cy="282" r="4.2"/>
<circle class="st36" cx="1134.7" cy="299.8" r="4.2"/>
<circle class="st36" cx="1134.7" cy="333" r="4.2"/>
<circle class="st36" cx="1135" cy="316.5" r="4.2"/>
<circle class="st36" cx="1135.8" cy="427.2" r="4.2"/>
<circle class="st36" cx="1135.8" cy="445" r="4.2"/>
<circle class="st36" cx="1135.8" cy="478.4" r="4.2"/>
<circle class="st36" cx="1136.2" cy="461.7" r="4.2"/>
<rect x="1131.3" y="568.2" class="st1" width="116.3" height="23.2"/>
<circle class="st36" cx="1136.6" cy="409.5" r="4.2"/>
<rect x="1150.2" y="406" class="st1" width="117.4" height="10.8"/>
<circle class="st0" cx="191.9" cy="724.5" r="13.2"/>
<g>
	<g>
		<polyline class="st8" points="725.7,332 725.7,474.9 778,474.9 783.4,469.7 		"/>
		<g>
			<polygon class="st9" points="784.4,478.6 781.8,471.4 774.8,468.2 791.8,462 			"/>
		</g>
	</g>
</g>
<g>
	<g>
		<polyline class="st8" points="521.7,117 616.9,117 616.9,81 800.3,81 803.7,81 803.5,68.5 		"/>
		<g>
			<polygon class="st9" points="527.1,124 524.1,117 527.1,109.9 510.4,117 			"/>
		</g>
		<g>
			<polygon class="st9" points="810.5,73.6 803.5,70.8 796.5,73.9 803.2,57.1 			"/>
		</g>
	</g>
</g>
<g>
	<g>
		<polyline class="st28" points="1104.2,551.7 1104.2,530.3 968.8,530.3 		"/>
		<g>
			<polygon class="st29" points="1111.3,546.4 1104.2,549.4 1097.3,546.4 1104.2,563 			"/>
		</g>
	</g>
</g>
<rect x="876.4" y="796.7" class="st1" width="108.2" height="28.3"/>
<g>
	<circle class="st0" cx="1378.8" cy="165.8" r="14.2"/>
	<circle class="st6" cx="1378.8" cy="316.6" r="14.2"/>
	<rect x="1362.3" y="205.7" class="st1" width="108.2" height="28.3"/>
	<text transform="matrix(1 0 0 1 1336.2307 218.4174)" class="st36 st40 st41">Preliminary</text>
	<text transform="matrix(1 0 0 1 1361.2139 374.5751)" class="st36 st40 st41">Core</text>
	<circle class="st17" cx="1378.8" cy="474.6" r="14.2"/>
	<circle class="st4" cx="1378.8" cy="624.8" r="14.2"/>
	<text transform="matrix(1 0 0 1 1340.9646 528.0746)" class="st36 st40 st41">Advanced</text>
	<text transform="matrix(1 0 0 1 1335.4563 682.6249)" class="st36 st40 st41">Application</text>
</g>
<circle class="st36" cx="92.8" cy="34.2" r="4.2"/>
<circle class="st36" cx="92.8" cy="55.8" r="4.2"/>
<circle class="st36" cx="840.7" cy="298.6" r="4.2"/>
<circle class="st36" cx="840.7" cy="315" r="4.2"/>
<g>
	<g>
		<polyline class="st30" points="816.1,454.7 1071,454.7 1083.3,451.7 		"/>
		<g>
			<polygon class="st31" points="1079.9,459.8 1081,452.3 1076.5,446.1 1094.3,449 			"/>
		</g>
	</g>
</g>
<circle class="st17" cx="801.9" cy="453.6" r="13.2"/>
<g>
	<g>
		<polyline class="st28" points="810.1,365.7 969.1,365.7 969.1,329.2 1010.8,329.2 1010.8,181 1081.2,181 		"/>
		<g>
			<polygon class="st29" points="1075.9,188 1078.9,181 1075.9,174 1092.5,181 			"/>
		</g>
	</g>
</g>
<g>
	<g>
		<polyline class="st18" points="801.9,440.4 801.9,423.4 828.8,408.7 828.8,305.3 819,299.1 		"/>
		<g>
			<polygon class="st17" points="827.3,296 821,300.4 819.7,307.8 809.5,293 			"/>
		</g>
	</g>
</g>
<circle class="st17" cx="801.9" cy="366" r="13.2"/>
<g>
	<g>
		<polyline class="st38" points="1088.3,461.3 1085.6,464 946.5,464 946.5,763.2 802,763.2 802,725.3 802,689.6 		"/>
		<g>
			<polygon class="st39" points="1079.5,460 1086.6,463 1089.5,470 1096.4,453.4 			"/>
		</g>
	</g>
</g>
<circle class="st36" cx="815.9" cy="637.2" r="4"/>
<circle class="st36" cx="815.9" cy="655.2" r="4"/>
<polyline class="st42" points="519.8,727.2 727.2,727.2 727.2,676.9 778.2,676.9 767.2,676.9 "/>
<g>
	<polygon class="st14" points="521.9,733.8 519.7,727.2 521.9,720.5 509.2,727.2 	"/>
</g>
<g>
	<polygon class="st14" points="773.5,670.3 776.3,676.9 773.5,683.6 789.3,676.9 	"/>
</g>
<circle class="st17" cx="801.5" cy="677.1" r="12.5"/>
<text transform="matrix(1 0 0 1 15.4418 527.0001)" class="st36 st40 st43">Programming</text>
<text transform="matrix(1 0 0 1 106.0682 57.4918)" class="st36 st40 st43">Operating </text>
<text transform="matrix(1 0 0 1 106.0682 71.8918)" class="st36 st40 st43">Systems</text>
<text transform="matrix(1 0 0 1 222.6846 523.8705)" class="st36 st40 st43">Data Structure</text>
<text transform="matrix(1 0 0 1 107.1461 37.308)" class="st36 st40 st43">Architecture </text>
<text transform="matrix(1 0 0 1 222.3571 667.9542)" class="st36 st40 st43">Probability</text>
<text transform="matrix(1 0 0 1 221.8 686.6533)" class="st36 st40 st43">Linear Algebra</text>
<text transform="matrix(1 0 0 1 222.6847 706.046)" class="st36 st40 st43">Statistics</text>
<text transform="matrix(1 0 0 1 222.8091 538.5287)" class="st36 st40 st43">Algorithm</text>
<text transform="matrix(1 0 0 1 525.3014 137.2038)" class="st36 st40 st43">Data Science</text>
<text transform="matrix(1 0 0 1 525.3014 156)" class="st36 st40 st43">Data Mining</text>
<text transform="matrix(1 0 0 1 515.5498 398.8001)" class="st36 st40 st43">Machine </text>
<text transform="matrix(1 0 0 1 515.5498 413.2001)" class="st36 st40 st43">Learning </text>
<text transform="matrix(1 0 0 1 515.3002 691.5698)" class="st36 st40 st43">Artificial </text>
<text transform="matrix(1 0 0 1 515.3002 705.9697)" class="st36 st40 st43">Intelligence</text>
<text transform="matrix(1 0 0 1 831.9758 74.9577)" class="st36 st40 st43">Parallel Algorithm </text>
<text transform="matrix(1 0 0 1 833.0628 58.842)" class="st36 st40 st43">Parallel Computing</text>
<text transform="matrix(1 0 0 1 817.9504 142.9997)" class="st36 st40 st43">Data Visualization</text>
<text transform="matrix(1 0 0 1 819.4003 229.2001)" class="st36 st40 st43">Big Data Analysis</text>
<text transform="matrix(1 0 0 1 819.4003 243.6001)" class="st36 st40 st43">/Processing</text>
<text transform="matrix(1 0 0 1 850.9968 304.7388)" class="st36 st40 st43">Deep Learning</text>
<text transform="matrix(1 0 0 1 838.8002 386.3738)" class="st36 st40 st43">Reinforcement</text>
<text transform="matrix(1 0 0 1 838.8002 400.7738)" class="st36 st40 st43">Learning</text>
<text transform="matrix(1 0 0 1 828.7994 498.133)" class="st36 st40 st43">Bayesian</text>
<text transform="matrix(1 0 0 1 828.8004 514.0001)" class="st36 st40 st43">Probability Modeling</text>
<text transform="matrix(1 0 0 1 828.7994 480.2005)" class="st36 st40 st43">Graphical Model</text>
<text transform="matrix(1 0 0 1 816.7002 575.4497)" class="st36 st40 st43">Intelligence Agents</text>
<text transform="matrix(1 0 0 1 1128.7526 728.6761)" class="st36 st40 st43">Robotics </text>
<text transform="matrix(1 0 0 1 1145.8755 36.724)" class="st36 st40 st43">Cloud System</text>
<text transform="matrix(1 0 0 1 1146.3237 54.827)" class="st36 st40 st43">Cloud Computing</text>
<text transform="matrix(1 0 0 1 1145.0415 286.1649)" class="st36 st40 st43">Speech Recognition</text>
<text transform="matrix(1 0 0 1 1143.728 335.5126)" class="st36 st40 st43">Natural Language</text>
<text transform="matrix(1 0 0 1 1143.728 349.9126)" class="st36 st40 st43">Processing</text>
<text transform="matrix(1 0 0 1 1145.0415 319.5233)" class="st36 st40 st43">Text Mining</text>
<text transform="matrix(1 0 0 1 1145.0415 303.5341)" class="st36 st40 st43">Information Retrieval</text>
<text transform="matrix(0.9691 0 0 1 1145.7812 432.889)" class="st36 st40 st44">Precise Medicine</text>
<text transform="matrix(0.9691 0 0 1 1146.2285 449.2054)" class="st36 st40 st44">Fintech</text>
<text transform="matrix(0.9691 0 0 1 1145.5566 466.3949)" class="st36 st40 st44">Manufacturing</text>
<text transform="matrix(0.9691 0 0 1 1146.0039 483.6039)" class="st36 st40 st44">Social Networks</text>
<text transform="matrix(1 0 0 1 1128.3174 580.9996)" class="st36 st40 st43">Computer Games</text>
<text transform="matrix(0.9691 0 0 1 1146.2285 415.2084)" class="st36 st40 st44">Bioinformatics</text>
<text transform="matrix(1 0 0 1 850.9976 320.8613)" class="st36 st40 st43">Neural Networks</text>
<text transform="matrix(1 0 0 1 1146.0037 168.6)" class="st36 st40 st43">Computer Vision</text>
<text transform="matrix(1 0 0 1 1146.0037 183)" class="st36 st40 st43">Image Processing </text>
<text transform="matrix(1 0 0 1 1146.0037 197.4)" class="st36 st40 st43">Pattern Recognition</text>
<text transform="matrix(1 0 0 1 824.7997 642.2)" class="st36 st40 st45">Fuzzy Systems</text>
<text transform="matrix(1 0 0 1 824.7997 656)" class="st36 st40 st45">Optimization Theory</text>
<text transform="matrix(1 0 0 1 824.7997 669.8)" class="st36 st40 st45">• Game Theory</text>
<text transform="matrix(1 0 0 1 824.7997 683.6)" class="st36 st40 st45">• Evolutionary </text>
<text transform="matrix(1 0 0 1 824.7997 697.4)" class="st36 st40 st45">  Computation </text>
<text transform="matrix(1 0 0 1 824.7997 711.2)" class="st36 st40 st45">• Linear and Non-Linear    </text>
<text transform="matrix(1 0 0 1 824.7997 725)" class="st36 st40 st45">  Programming</text>
<circle class="st36" cx="1134.8" cy="164.1" r="4.2"/>
<circle class="st36" cx="1134.8" cy="178.9" r="4.2"/>
<circle class="st36" cx="1135.2" cy="194.6" r="4.2"/>
<circle class="st0" cx="49.4" cy="496.1" r="13.2"/>
<text transform="matrix(1 0 0 1 1145.7123 499.7307)" class="st36 st40 st43">AI Security</text>
<circle class="st36" cx="1135.8" cy="495.1" r="4.2"/>
</svg>
