<?xml version="1.0" encoding="utf-8"?>
<!-- Generator: Adobe Illustrator 21.1.0, SVG Export Plug-In . SVG Version: 6.00 Build 0)  -->
<svg version="1.1" id="Layer_1" xmlns="http://www.w3.org/2000/svg" xmlns:xlink="http://www.w3.org/1999/xlink" x="0px" y="0px"
	 viewBox="0 0 1313.5 838.7" style="enable-background:new 0 0 1313.5 838.7;" xml:space="preserve">
<style type="text/css">
	.st0{fill:#FFFFFF;}
	.st1{fill:none;stroke:#808080;stroke-width:6;stroke-linecap:square;stroke-linejoin:bevel;}
	.st2{fill:#808080;}
	.st3{fill:none;stroke:#820C7D;stroke-width:6;stroke-miterlimit:10;}
	.st4{fill:#820C7D;}
	.st5{fill:none;stroke:#808080;stroke-width:6;stroke-linejoin:bevel;}
	.st6{fill:#01A0C6;}
	.st7{fill:none;stroke:#808080;stroke-width:6;stroke-linecap:square;stroke-linejoin:round;}
	.st8{fill:none;stroke:#820C7D;stroke-width:6;stroke-linecap:square;stroke-linejoin:bevel;}
	.st9{fill:none;stroke:#808080;stroke-width:6;stroke-miterlimit:10;}
	.st10{fill:none;stroke:#FEA621;stroke-width:6;stroke-miterlimit:10;}
	.st11{fill:none;stroke:#808080;stroke-width:6;stroke-linecap:square;stroke-linejoin:bevel;stroke-miterlimit:10;}
	.st12{fill:none;stroke:#01A0C6;stroke-width:6;stroke-linecap:square;stroke-linejoin:round;}
	.st13{fill:#808080;stroke:#000000;stroke-width:0.25;stroke-miterlimit:10;}
	.st14{fill:#333333;}
	.st15{fill:none;stroke:#820C7D;stroke-width:6;stroke-linecap:square;stroke-linejoin:bevel;stroke-miterlimit:10;}
	.st16{fill:#82027E;}
	.st17{fill:#8E1385;}
	.st18{fill:none;}
	.st19{fill:#189DC5;}
	.st20{fill:#383838;}
	.st21{font-family:'MicrosoftJhengHeiRegular';}
	.st22{font-size:12px;}
	.st23{font-size:18px;}
</style>
<rect y="0" class="st0" width="1313.5" height="838.7"/>
<g>
	<g>
		<polyline class="st1" points="1062.3,435.2 1059.7,437.7 927.7,437.7 927.7,721.5 790.8,721.5 790.8,685.6 		"/>
		<g>
			<polygon class="st2" points="1054,434 1060.7,436.8 1063.3,443.5 1069.9,427.7 			"/>
		</g>
	</g>
</g>
<g>
	<g>
		<line class="st3" x1="195.6" y1="468.2" x2="79.2" y2="468.2"/>
		<g>
			<polygon class="st4" points="187.7,461.5 194.4,468.2 187.7,474.9 193.4,474.9 200.1,468.2 193.4,461.5 			"/>
		</g>
	</g>
</g>
<g>
	<g>
		<line class="st5" x1="213" y1="61.3" x2="213" y2="446"/>
		<g>
			<polygon class="st2" points="206.3,66.4 213,63.5 219.7,66.4 213,50.6 			"/>
		</g>
		<g>
			<polygon class="st2" points="206.3,440.9 213,443.7 219.7,440.9 213,456.7 			"/>
		</g>
	</g>
</g>
<circle class="st2" cx="213" cy="39.3" r="12.5"/>
<circle class="st2" cx="1077.4" cy="36.6" r="12.5"/>
<circle class="st6" cx="1079.7" cy="169.7" r="12.5"/>
<circle class="st6" cx="1077.4" cy="290.2" r="12.5"/>
<circle class="st2" cx="1077.4" cy="415.4" r="12.5"/>
<circle class="st2" cx="1077.4" cy="543.9" r="12.5"/>
<g>
	<g>
		<polyline class="st5" points="478.6,108.6 296.3,108.6 296.3,469.2 265.9,469.2 		"/>
		<g>
			<polygon class="st2" points="473.6,101.9 476.4,108.6 473.6,115.3 489.4,108.6 			"/>
		</g>
	</g>
</g>
<g>
	<g>
		<polyline class="st1" points="501.9,97.7 501.9,84.6 790.8,84.6 790.8,87.2 		"/>
		<g>
			<polygon class="st2" points="784.1,82.1 790.8,85 797.4,82.1 790.8,97.9 			"/>
		</g>
	</g>
</g>
<g>
	<g>
		<polyline class="st5" points="718.5,87 718.5,160.3 790.8,160.3 790.8,168.4 		"/>
		<g>
			<polygon class="st2" points="784.1,163.3 790.8,166.1 797.4,163.3 790.8,179.1 			"/>
		</g>
	</g>
</g>
<g>
	<g>
		<polyline class="st5" points="718.5,156 718.5,236.1 790.8,236.1 790.8,245.1 		"/>
		<g>
			<polygon class="st2" points="784.1,240.1 790.8,242.9 797.4,240.1 790.8,255.9 			"/>
		</g>
	</g>
</g>
<g>
	<g>
		<polyline class="st5" points="718.5,232.5 718.5,312.6 790.8,312.6 790.8,321.6 		"/>
		<g>
			<polygon class="st2" points="784.1,316.6 790.8,319.4 797.4,316.6 790.8,332.4 			"/>
		</g>
	</g>
</g>
<g>
	<g>
		<polyline class="st1" points="636.9,268.4 636.9,191.6 767.5,191.6 		"/>
		<g>
			<polygon class="st2" points="762.5,198.3 765.3,191.6 762.5,185 778.3,191.6 			"/>
		</g>
	</g>
</g>
<g>
	<g>
		<line class="st7" x1="501.9" y1="131.8" x2="501.9" y2="376"/>
		<g>
			<polygon class="st2" points="495.2,136.9 501.9,134.1 508.6,136.9 501.9,121.1 			"/>
		</g>
		<g>
			<polygon class="st2" points="495.2,370.9 501.9,373.7 508.6,370.9 501.9,386.7 			"/>
		</g>
	</g>
</g>
<g>
	<g>
		<line class="st8" x1="501.7" y1="421.9" x2="501.7" y2="659"/>
		<g>
			<polygon class="st4" points="495,426.9 501.7,424.1 508.3,426.9 501.7,411.1 			"/>
		</g>
		<g>
			<polygon class="st4" points="495,653.9 501.7,656.8 508.3,653.9 501.7,669.7 			"/>
		</g>
	</g>
</g>
<g>
	<g>
		<polyline class="st7" points="483.9,123.2 453.6,153.4 453.6,684.7 		"/>
		<g>
			<polygon class="st2" points="475.6,122 482.3,124.7 485,131.4 491.5,115.6 			"/>
		</g>
	</g>
</g>
<g>
	<g>
		<polyline class="st9" points="789.3,445.8 789.3,450.7 789.3,495.6 789.3,501 		"/>
		<g>
			<polygon class="st2" points="782.6,450.8 789.3,448 795.9,450.9 789.3,435 			"/>
		</g>
		<g>
			<polygon class="st2" points="782.6,496 789.3,498.8 795.9,495.9 789.3,511.8 			"/>
		</g>
	</g>
</g>
<g>
	<g>
		<polyline class="st9" points="768.4,204.2 739.3,216.5 739.3,403.3 768.3,414.8 		"/>
		<g>
			<polygon class="st2" points="761.1,200 766.3,205 766.3,212.3 778.3,200 			"/>
		</g>
		<g>
			<polygon class="st2" points="761.1,419.1 766.2,414 766,406.7 778.3,418.7 			"/>
		</g>
	</g>
</g>
<g>
	<g>
		<polyline class="st9" points="790.8,415.4 790.8,399.2 816.3,385.2 816.3,287.2 807,281.3 		"/>
		<g>
			<polygon class="st2" points="814.9,278.4 808.9,282.5 807.7,289.7 798,275.5 			"/>
		</g>
	</g>
</g>
<g>
	<g>
		<line class="st9" x1="816.3" y1="385.2" x2="804.4" y2="363.5"/>
		<g>
			<polygon class="st2" points="812.7,364.7 805.5,365.4 801,371.1 799.3,354 			"/>
		</g>
	</g>
</g>
<g>
	<g>
		<line class="st5" x1="803.3" y1="36.6" x2="1054.2" y2="36.6"/>
		<g>
			<polygon class="st2" points="1049.1,43.2 1052,36.6 1049.1,29.9 1064.9,36.6 			"/>
		</g>
	</g>
</g>
<path class="st10" d="M1064.9,415.4"/>
<g>
	<g>
		<polyline class="st1" points="803.3,109.1 1027.7,109.1 1027.7,251.3 1077.4,251.3 1077.4,267 		"/>
		<g>
			<polygon class="st2" points="1070.8,261.9 1077.4,264.8 1084.1,261.9 1077.4,277.7 			"/>
		</g>
	</g>
</g>
<g>
	<g>
		<polyline class="st1" points="803.3,191.6 1003.9,191.6 1003.9,290.2 1054.2,290.2 		"/>
		<g>
			<polygon class="st2" points="1049.1,296.9 1052,290.2 1049.1,283.6 1064.9,290.2 			"/>
		</g>
	</g>
</g>
<g>
	<g>
		<polyline class="st1" points="1003.9,290.2 1003.9,415.4 1054.2,415.4 		"/>
		<g>
			<polygon class="st2" points="1049.1,422.1 1052,415.4 1049.1,408.7 1064.9,415.4 			"/>
		</g>
	</g>
</g>
<g>
	<g>
		<polyline class="st1" points="1060.5,272.4 1057.3,268.4 975.3,268.4 975.3,393.3 1052.6,393.3 1060.3,399.8 		"/>
		<g>
			<polygon class="st2" points="1062.6,264.3 1059.1,270.7 1052.1,272.6 1067.2,280.9 			"/>
		</g>
		<g>
			<polygon class="st2" points="1052.1,401.6 1058.6,398.4 1060.7,391.4 1068.5,406.7 			"/>
		</g>
	</g>
</g>
<line class="st11" x1="975.3" y1="393.3" x2="975.3" y2="518.9"/>
<g>
	<g>
		<polyline class="st1" points="803.3,344.9 949.1,344.9 949.1,310.3 1055.9,310.3 1060.5,306.1 		"/>
		<g>
			<polygon class="st2" points="1061.2,314.4 1058.8,307.6 1052.3,304.5 1068.5,298.9 			"/>
		</g>
	</g>
</g>
<g>
	<g>
		<polyline class="st8" points="636.9,427.9 636.9,580.7 1077.4,580.7 1077.4,600.5 1077.4,659 		"/>
		<g>
			<polygon class="st4" points="1070.8,653.9 1077.4,656.8 1084.1,653.9 1077.4,669.7 			"/>
		</g>
	</g>
</g>
<g>
	<g>
		<line class="st12" x1="525.1" y1="682.2" x2="767.5" y2="682.2"/>
		<g>
			<polygon class="st6" points="530.2,688.9 527.4,682.2 530.2,675.6 514.4,682.2 			"/>
		</g>
		<g>
			<polygon class="st6" points="762.5,688.9 765.3,682.2 762.5,675.6 778.3,682.2 			"/>
		</g>
	</g>
</g>
<g>
	<g>
		<polyline class="st1" points="1027.7,251.3 1027.7,446.4 1077.4,446.4 1077.4,438.6 		"/>
		<g>
			<polygon class="st2" points="1084.1,443.7 1077.4,440.9 1070.8,443.7 1077.4,427.9 			"/>
		</g>
	</g>
</g>
<g>
	<g>
		<line class="st9" x1="1077.4" y1="302.7" x2="1077.4" y2="392.2"/>
		<g>
			<polygon class="st2" points="1070.8,387.1 1077.4,389.9 1084.1,387.1 1077.4,402.9 			"/>
		</g>
	</g>
</g>
<g>
	<g>
		<polyline class="st5" points="225.1,469.2 265.9,469.2 265.9,60.9 772.8,60.9 781.1,52.8 		"/>
		<g>
			<polygon class="st2" points="782.2,61.1 779.6,54.4 772.9,51.6 788.8,45.3 			"/>
		</g>
	</g>
</g>
<g>
	<g>
		<line class="st5" x1="225.5" y1="39.3" x2="767.5" y2="39.3"/>
		<g>
			<polygon class="st2" points="762.5,45.9 765.3,39.3 762.5,32.6 778.3,39.3 			"/>
		</g>
	</g>
</g>
<circle class="st2" cx="790.8" cy="38.9" r="12.5"/>
<circle class="st2" cx="790.8" cy="109.1" r="12.5"/>
<circle class="st2" cx="790.8" cy="191.6" r="12.5"/>
<g>
	<g>
		<polyline class="st1" points="636.9,191.6 636.9,108.6 767.5,108.6 		"/>
		<g>
			<polygon class="st2" points="762.5,115.3 765.3,108.6 762.5,101.9 778.3,108.6 			"/>
		</g>
	</g>
</g>
<g>
	<g>
		<polyline class="st9" points="478.6,399.2 453.6,399.2 453.6,684.7 223.8,684.7 		"/>
		<g>
			<polygon class="st2" points="473.6,392.5 476.4,399.2 473.6,405.9 489.4,399.2 			"/>
		</g>
	</g>
</g>
<g>
	<g>
		<line class="st8" x1="212.6" y1="492.4" x2="212.6" y2="661.5"/>
		<g>
			<polygon class="st4" points="205.9,497.5 212.6,494.7 219.2,497.5 212.6,481.7 			"/>
		</g>
		<g>
			<polygon class="st4" points="205.9,656.4 212.6,659.3 219.2,656.4 212.6,672.2 			"/>
		</g>
	</g>
</g>
<circle class="st2" cx="501.9" cy="108.6" r="12.5"/>
<circle class="st13" cx="519" cy="122.6" r="4"/>
<circle class="st13" cx="519" cy="140.8" r="4"/>
<circle class="st2" cx="810.2" cy="66.3" r="4"/>
<circle class="st2" cx="810.2" cy="49.3" r="4"/>
<g>
	<g>
		<polyline class="st12" points="790.8,694.5 790.8,721.5 1077.4,721.5 1077.4,705.5 		"/>
		<g>
			<polygon class="st6" points="1084.1,710.5 1077.4,707.7 1070.8,710.5 1077.4,694.7 			"/>
		</g>
	</g>
</g>
<circle class="st2" cx="1107.2" cy="27.5" r="4"/>
<circle class="st2" cx="1107.2" cy="44.4" r="4"/>
<circle class="st6" cx="790.8" cy="682" r="12.5"/>
<g>
	<g>
		<polyline class="st1" points="718.5,312.6 718.5,448.1 768.1,448.1 773.3,443.2 		"/>
		<g>
			<polygon class="st2" points="774.2,451.5 771.7,444.7 765.1,441.8 781.2,435.9 			"/>
		</g>
	</g>
</g>
<g>
	<g>
		<polyline class="st5" points="525.1,108.6 615.4,108.6 615.4,74.6 789.3,74.6 792.5,74.6 792.3,62.6 		"/>
		<g>
			<polygon class="st2" points="530.2,115.3 527.4,108.6 530.2,102 514.4,108.6 			"/>
		</g>
		<g>
			<polygon class="st2" points="799,67.5 792.3,64.9 785.7,67.9 792,51.9 			"/>
		</g>
	</g>
</g>
<circle class="st2" cx="118.4" cy="29.3" r="4"/>
<circle class="st2" cx="118.4" cy="49.6" r="4"/>
<circle class="st14" cx="232.5" cy="505.5" r="4"/>
<circle class="st14" cx="232.9" cy="489.7" r="4"/>
<circle class="st14" cx="232" cy="626.2" r="4"/>
<circle class="st14" cx="232" cy="645.2" r="4"/>
<circle class="st14" cx="232" cy="664.8" r="4"/>
<circle class="st2" cx="804.8" cy="447.3" r="4"/>
<circle class="st2" cx="804.8" cy="466.2" r="4"/>
<circle class="st2" cx="804.8" cy="481.6" r="4"/>
<circle class="st14" cx="810.2" cy="664.2" r="4"/>
<circle class="st14" cx="809.8" cy="693.3" r="4"/>
<circle class="st14" cx="1106.4" cy="265.1" r="4"/>
<circle class="st2" cx="1106.4" cy="282" r="4"/>
<circle class="st2" cx="1106.4" cy="313.6" r="4"/>
<circle class="st2" cx="1106.7" cy="297.8" r="4"/>
<circle class="st2" cx="1107.4" cy="402.9" r="4"/>
<circle class="st2" cx="1107.4" cy="419.7" r="4"/>
<circle class="st2" cx="1107.4" cy="451.3" r="4"/>
<circle class="st2" cx="1107.8" cy="435.6" r="4"/>
<circle class="st2" cx="1108.2" cy="386" r="4"/>
<circle class="st14" cx="827.6" cy="280.9" r="4"/>
<circle class="st14" cx="827.6" cy="296.5" r="4"/>
<g>
	<g>
		<polyline class="st1" points="804.3,428.9 1046,428.9 1057.7,426.1 		"/>
		<g>
			<polygon class="st2" points="1054.4,433.8 1055.5,426.6 1051.2,420.8 1068.1,423.5 			"/>
		</g>
	</g>
</g>
<circle class="st2" cx="790.8" cy="427.9" r="12.5"/>
<g>
	<g>
		<polyline class="st1" points="767.5,268.4 636.9,268.4 636.9,399.2 592.4,399.2 514.4,399.2 		"/>
		<g>
			<polygon class="st2" points="762.5,261.7 765.3,268.4 762.5,275 778.3,268.4 			"/>
		</g>
	</g>
</g>
<g>
	<g>
		<line class="st1" x1="767.5" y1="344.9" x2="636.9" y2="344.9"/>
		<g>
			<polygon class="st2" points="762.5,338.2 765.3,344.9 762.5,351.6 778.3,344.9 			"/>
		</g>
	</g>
</g>
<g>
	<g>
		<polyline class="st1" points="636.9,399.2 636.9,427.9 767.5,427.9 		"/>
		<g>
			<polygon class="st2" points="762.5,434.6 765.3,427.9 762.5,421.2 778.3,427.9 			"/>
		</g>
	</g>
</g>
<g>
	<g>
		<polyline class="st1" points="803.3,427.9 927.5,427.9 927.5,156 927.5,144.7 1057.6,144.7 1064.3,152.3 		"/>
		<g>
			<polygon class="st2" points="1055.9,152.9 1062.8,150.6 1065.9,144.1 1071.3,160.4 			"/>
		</g>
	</g>
</g>
<g>
	<g>
		<polyline class="st8" points="484.5,684.7 302.7,684.7 224.8,684.7 		"/>
		<g>
			<polygon class="st4" points="479.5,678.1 482.3,684.7 479.5,691.4 495.3,684.7 			"/>
		</g>
	</g>
</g>
<g>
	<g>
		<polyline class="st8" points="586.4,377.2 790.8,377.2 790.8,368.1 		"/>
		<g>
			<polygon class="st4" points="797.4,373.2 790.8,370.4 784.1,373.2 790.8,357.4 			"/>
		</g>
	</g>
</g>
<g>
	<g>
		<line class="st8" x1="586.4" y1="518.9" x2="768.3" y2="518.9"/>
		<g>
			<polygon class="st4" points="763.2,525.6 766,518.9 763.2,512.3 779,518.9 			"/>
		</g>
	</g>
</g>
<g>
	<g>
		<polyline class="st8" points="790.8,291.6 790.8,296.6 586.4,296.6 586.4,721.5 501.9,721.5 501.9,694.7 		"/>
		<g>
			<polygon class="st4" points="784.1,296.7 790.8,293.8 797.4,296.7 790.8,280.9 			"/>
		</g>
	</g>
</g>
<g>
	<g>
		<polyline class="st1" points="1077.5,520.4 1077.5,500.1 949.1,500.1 949.1,344.9 810.8,344.9 801,344.9 		"/>
		<g>
			<polygon class="st2" points="1084.2,515.3 1077.5,518.2 1070.9,515.3 1077.5,531.1 			"/>
		</g>
	</g>
</g>
<g>
	<g>
		<polyline class="st1" points="803.3,518.9 1046.7,518.9 1059.9,528.8 		"/>
		<g>
			<polygon class="st2" points="1051.8,531.1 1058.1,527.5 1059.8,520.4 1068.5,535.2 			"/>
		</g>
	</g>
</g>
<g>
	<g>
		<polyline class="st1" points="1054.2,543.9 975.3,543.9 975.3,268.4 800.8,268.4 		"/>
		<g>
			<polygon class="st2" points="1049.1,537.3 1052,543.9 1049.1,550.6 1064.9,543.9 			"/>
		</g>
	</g>
</g>
<polyline class="st15" points="513,399.2 636.9,399.2 636.9,572.8 "/>
<g>
	<g>
		<polyline class="st8" points="1095.9,665.7 1102.6,659.6 1102.6,653.3 1102.6,624 912.9,624 912.9,518.9 800.8,518.9 		"/>
		<g>
			<polygon class="st4" points="1104.1,667.2 1097.6,664.2 1095.2,657.3 1088,672.9 			"/>
		</g>
	</g>
</g>
<g>
	<g>
		<polyline class="st12" points="803.3,268.4 975.3,268.4 975.3,169.7 975.3,150.1 975.3,135.3 975.3,126.5 1079.7,126.5 
			1079.7,146.4 		"/>
		<g>
			<polygon class="st6" points="1073,141.4 1079.7,144.2 1086.3,141.4 1079.7,157.2 			"/>
		</g>
	</g>
</g>
<circle class="st16" cx="69.3" cy="468" r="12.5"/>
<circle class="st16" cx="212.6" cy="469.2" r="12.5"/>
<circle class="st16" cx="790.8" cy="518.9" r="12.5"/>
<circle class="st16" cx="790.8" cy="268.4" r="12.5"/>
<circle class="st16" cx="790.8" cy="344.9" r="12.5"/>
<circle class="st16" cx="501.9" cy="682.2" r="12.5"/>
<circle class="st16" cx="1079.7" cy="682.2" r="12.5"/>
<circle class="st16" cx="212.3" cy="684.7" r="12.5"/>
<circle class="st16" cx="501.9" cy="399.2" r="12.5"/>
<g>
	<circle class="st17" cx="537.9" cy="803" r="14.2"/>
	<line class="st18" x1="523.7" y1="838.7" x2="780.7" y2="838.7"/>
	<circle class="st19" cx="652.2" cy="803" r="14.2"/>
</g>
<path class="st15" d="M975.3,518.9"/>
<g>
	<g>
		<polyline class="st8" points="1063.1,666 1052.6,657.2 975.3,657.2 975.3,518.9 975.3,270.3 		"/>
		<g>
			<polygon class="st4" points="1063.5,657.7 1061.4,664.6 1054.9,667.9 1071.3,672.9 			"/>
		</g>
	</g>
</g>
<g>
	<g>
		<polyline class="st1" points="797.9,344.6 948.7,344.6 948.7,310 988.2,310 988.2,169.4 1055,169.4 		"/>
		<g>
			<polygon class="st2" points="1049.9,176.1 1052.8,169.4 1049.9,162.8 1065.7,169.4 			"/>
		</g>
	</g>
</g>
<g>
	<g>
		<polyline class="st8" points="1062.1,697 1052.6,702.5 949.1,702.5 949.1,344.9 790.8,344.9 		"/>
		<g>
			<polygon class="st4" points="1054.3,693.7 1060.1,698.1 1061,705.3 1071.3,691.6 			"/>
		</g>
	</g>
</g>
<g>
	<g>
		<polyline class="st12" points="1060.5,272.4 1057.3,268.4 975.3,268.4 		"/>
		<g>
			<polygon class="st6" points="1062.6,264.3 1059.1,270.7 1052.1,272.6 1067.2,280.9 			"/>
		</g>
	</g>
</g>
<g>
	<g>
		<polyline class="st8" points="1063.1,666 1052.6,657.2 975.3,657.2 975.3,518.9 975.3,270.3 975.3,268.5 796.1,268.5 		"/>
		<g>
			<polygon class="st4" points="1063.5,657.7 1061.4,664.6 1054.9,667.9 1071.3,672.9 			"/>
		</g>
	</g>
</g>
<line class="st18" x1="523.7" y1="838.7" x2="780.7" y2="838.7"/>
<g>
	<rect x="825.2" y="660.8" class="st18" width="139" height="41.6"/>
	<text transform="matrix(1 0 0 1 825.1585 670.7754)" class="st20 st21 st22">演化計算</text>
	<text transform="matrix(1 0 0 1 825.1585 699.5754)" class="st20 st21 st22">模糊系統</text>
</g>
<g>
	<rect x="1109" y="685.5" class="st18" width="101.9" height="12.9"/>
	<text transform="matrix(1 0 0 1 1108.9635 695.0977)" class="st20 st21 st22">機器人</text>
</g>
<g>
	<rect x="1125.3" y="260" class="st18" width="111.3" height="10.2"/>
	<text transform="matrix(1 0 0 1 1125.2524 269.5861)" class="st20 st21 st22">語音辨識</text>
</g>
<rect x="565.9" y="798.9" class="st18" width="60.1" height="28.3"/>
<text transform="matrix(1 0 0 1 565.9221 813.2972)" class="st20 st21 st23">核心</text>
<rect x="42.3" y="489.5" class="st18" width="72" height="12"/>
<text transform="matrix(1 0 0 1 54.2978 499.0496)" class="st20 st21 st22">程式語言</text>
<rect x="245.8" y="485" class="st18" width="101.7" height="14.9"/>
<text transform="matrix(1 0 0 1 245.771 494.5789)" class="st20 st21 st22">資料結構</text>
<rect x="233.9" y="589.1" class="st18" width="85.4" height="30.5"/>
<text transform="matrix(1 0 0 1 233.8691 598.7081)" class="st20 st21 st22">計算數學</text>
<rect x="245.8" y="620.5" class="st18" width="85.4" height="15.2"/>
<text transform="matrix(1 0 0 1 245.7543 630.0997)" class="st20 st21 st22">機率</text>
<rect x="245.2" y="639.2" class="st18" width="85.4" height="15.2"/>
<text transform="matrix(1 0 0 1 245.1972 648.7989)" class="st20 st21 st22">線性代數</text>
<rect x="246.1" y="658.6" class="st18" width="85.4" height="15.2"/>
<text transform="matrix(1 0 0 1 246.082 668.1915)" class="st20 st21 st22">統計</text>
<rect x="245.9" y="499.6" class="st18" width="58.5" height="18.1"/>
<text transform="matrix(1 0 0 1 245.896 509.238)" class="st20 st21 st22">演算法</text>
<rect x="519.8" y="364.1" class="st18" width="63.5" height="26.1"/>
<text transform="matrix(1 0 0 1 519.7571 373.7035)" class="st20 st21 st22">機器學習</text>
<rect x="518.1" y="642.2" class="st18" width="66.8" height="25.7"/>
<text transform="matrix(1 0 0 1 518.0784 651.747)" class="st20 st21 st22">人工智慧</text>
<rect x="840.9" y="275.5" class="st18" width="86.2" height="12.2"/>
<text transform="matrix(1 0 0 1 840.9038 285.132)" class="st20 st21 st22">深度學習</text>
<rect x="831.2" y="353.4" class="st18" width="101.9" height="23.5"/>
<text transform="matrix(1 0 0 1 831.2082 362.995)" class="st20 st21 st22">強化學習</text>
<rect x="810.8" y="526.7" class="st18" width="107.3" height="17"/>
<text transform="matrix(1 0 0 1 810.8284 536.2986)" class="st20 st21 st22">智慧代理</text>
<rect x="813.1" y="655" class="st18" width="96.3" height="28.7"/>
<rect x="1125.1" y="430.3" class="st18" width="96.3" height="28.7"/>
<text transform="matrix(1 0 0 1 840.9045 300.1827)" class="st20 st21 st22">類神經網路</text>
<rect x="682.7" y="799" class="st18" width="60.1" height="28.3"/>
<text transform="matrix(1 0 0 1 682.6829 813.3631)" class="st20 st21 st23">選擇</text>
<g>
	<rect x="131.7" y="43.4" class="st18" width="73.5" height="25.7"/>
	<text transform="matrix(1 0 0 1 131.6909 53.0113)" class="st2 st21 st22">作業系統</text>
</g>
<g>
	<rect x="132.8" y="23.2" class="st18" width="73.5" height="26.3"/>
	<text transform="matrix(1 0 0 1 132.7688 32.827)" class="st2 st21 st22">計算機結構</text>
</g>
<g>
	<rect x="535.2" y="120.4" class="st18" width="73.5" height="12.9"/>
	<text transform="matrix(1 0 0 1 535.2114 129.9543)" class="st2 st21 st22">資料科學</text>
</g>
<g>
	<rect x="535.2" y="139.2" class="st18" width="73.5" height="12.9"/>
	<text transform="matrix(1 0 0 1 535.2114 148.7512)" class="st2 st21 st22">資料探勘</text>
</g>
<g>
	<rect x="821.6" y="61.4" class="st18" width="122.5" height="12.9"/>
	<text transform="matrix(1 0 0 1 821.6419 70.9594)" class="st2 st21 st22">平行演算法</text>
</g>
<g>
	<rect x="822.7" y="45.3" class="st18" width="109.1" height="13.2"/>
	<text transform="matrix(1 0 0 1 822.7299 54.8433)" class="st2 st21 st22">平行運算</text>
</g>
<g>
	<rect x="812.7" y="118.6" class="st18" width="161.9" height="43.9"/>
	<text transform="matrix(1 0 0 1 812.7298 128.2327)" class="st2 st21 st22">資料視覺化</text>
</g>
<g>
	<rect x="809.5" y="197.7" class="st18" width="129.6" height="53.4"/>
	<text transform="matrix(1 0 0 1 809.4857 207.7056)" class="st2 st21 st22">巨量資料/</text>
	<text transform="matrix(1 0 0 1 809.4857 222.1056)" class="st2 st21 st22">大數據分析</text>
</g>
<g>
	<rect x="817.3" y="461.1" class="st18" width="73.5" height="12.9"/>
	<text transform="matrix(1 0 0 1 817.3427 470.6928)" class="st2 st21 st22">貝氏分析</text>
</g>
<g>
	<rect x="817.3" y="477" class="st18" width="115.8" height="12.9"/>
	<text transform="matrix(1 0 0 1 817.3427 486.56)" class="st2 st21 st22">機率模型</text>
</g>
<g>
	<rect x="817.3" y="443.2" class="st18" width="101.9" height="9.7"/>
	<text transform="matrix(1 0 0 1 817.3427 452.7597)" class="st2 st21 st22">圖模型</text>
</g>
<g>
	<rect x="1126.1" y="22.6" class="st18" width="93" height="10.2"/>
	<text transform="matrix(1 0 0 1 1126.0864 32.1457)" class="st2 st21 st22">雲端系統</text>
</g>
<g>
	<rect x="1126.5" y="40.7" class="st18" width="110" height="10.2"/>
	<text transform="matrix(1 0 0 1 1126.5347 50.2482)" class="st2 st21 st22">雲端運算</text>
</g>
<g>
	<rect x="1108.5" y="166.6" class="st18" width="93" height="10.2"/>
	<text transform="matrix(1 0 0 1 1108.5403 176.2248)" class="st2 st21 st22">電腦視覺</text>
</g>
<g>
	<rect x="1123.9" y="309.3" class="st18" width="110" height="25.1"/>
	<text transform="matrix(1 0 0 1 1123.939 318.9342)" class="st2 st21 st22">自然語言處理</text>
</g>
<g>
	<rect x="1125.3" y="293.4" class="st18" width="93" height="10.2"/>
	<text transform="matrix(1 0 0 1 1125.2524 302.9445)" class="st2 st21 st22">文字探勘</text>
</g>
<g>
	<rect x="1125.3" y="277.4" class="st18" width="118.4" height="10.2"/>
	<text transform="matrix(1 0 0 1 1125.2524 286.9552)" class="st2 st21 st22">資訊檢索</text>
</g>
<g>
	<rect x="1126" y="399.9" class="st18" width="93" height="10.2"/>
	<text transform="matrix(1 0 0 1 1125.9917 409.443)" class="st2 st21 st22">精準醫學</text>
</g>
<g>
	<rect x="1126.4" y="415.7" class="st18" width="93" height="10.2"/>
	<text transform="matrix(1 0 0 1 1126.4399 425.2536)" class="st2 st21 st22">金融科技</text>
</g>
<g>
	<rect x="1125.8" y="430.4" class="st18" width="93" height="10.2"/>
	<text transform="matrix(1 0 0 1 1125.7671 439.9743)" class="st2 st21 st22">製造</text>
</g>
<g>
	<rect x="1126.2" y="447.1" class="st18" width="93" height="10.2"/>
	<text transform="matrix(1 0 0 1 1126.2153 456.6501)" class="st2 st21 st22">社群網路</text>
</g>
<g>
	<rect x="1126.4" y="382.7" class="st18" width="111.3" height="10.2"/>
	<text transform="matrix(1 0 0 1 1126.4399 392.3092)" class="st2 st21 st22">生物資訊</text>
</g>
<rect x="1125.1" y="430.3" class="st18" width="96.3" height="28.7"/>
<g>
	<rect x="1108.5" y="536.5" class="st18" width="110.3" height="22"/>
	<text transform="matrix(1 0 0 1 1108.5278 546.1257)" class="st2 st21 st22">電腦對局</text>
</g>
</svg>
