<?xml version="1.0" encoding="utf-8"?>
<!-- Generator: Adobe Illustrator 21.1.0, SVG Export Plug-In . SVG Version: 6.00 Build 0)  -->
<svg version="1.1" id="Layer_1" xmlns="http://www.w3.org/2000/svg" xmlns:xlink="http://www.w3.org/1999/xlink" x="0px" y="0px"
	 viewBox="0 0 1313.5 838.7" style="enable-background:new 0 0 1313.5 838.7;" xml:space="preserve">
<style type="text/css">
	.st0{fill:#FFFFFF;}
	.st1{fill:#82027E;}
	.st2{fill:none;stroke:#820C7D;stroke-width:6;stroke-miterlimit:10;}
	.st3{fill:#820C7D;}
	.st4{fill:none;stroke:#808080;stroke-width:6;stroke-linejoin:bevel;}
	.st5{fill:#808080;}
	.st6{fill:none;stroke:#808080;stroke-width:6;stroke-miterlimit:10;}
	.st7{fill:none;stroke:#808080;stroke-width:6;stroke-linecap:square;stroke-linejoin:bevel;}
	.st8{fill:none;stroke:#808080;stroke-width:6;stroke-linecap:square;stroke-linejoin:round;}
	.st9{fill:none;stroke:#FEA621;stroke-width:6;stroke-miterlimit:10;}
	.st10{fill:none;stroke:#808080;stroke-width:6;stroke-linecap:square;stroke-linejoin:bevel;stroke-miterlimit:10;}
	.st11{fill:none;stroke:#820C7D;stroke-width:6;stroke-linecap:square;stroke-linejoin:bevel;}
	.st12{fill:#808080;stroke:#000000;stroke-width:0.25;stroke-miterlimit:10;}
	.st13{fill:#333333;}
	.st14{fill:#8E1385;}
	.st15{fill:none;}
	.st16{fill:#1A1A1A;}
	.st17{font-family:'MicrosoftJhengHeiRegular';}
	.st18{font-size:12px;}
</style>
<rect y="0" class="st0" width="1313.5" height="838.7"/>
<circle class="st1" cx="69.3" cy="468" r="12.5"/>
<g>
	<g>
		<line class="st2" x1="195.6" y1="468.2" x2="79.2" y2="468.2"/>
		<g>
			<polygon class="st3" points="187.7,461.5 194.4,468.2 187.7,474.9 193.4,474.9 200.1,468.2 193.4,461.5 			"/>
		</g>
	</g>
</g>
<g>
	<g>
		<line class="st4" x1="213" y1="61.3" x2="213" y2="446"/>
		<g>
			<polygon class="st5" points="206.3,66.4 213,63.6 219.7,66.4 213,50.6 			"/>
		</g>
		<g>
			<polygon class="st5" points="206.3,440.9 213,443.8 219.7,440.9 213,456.7 			"/>
		</g>
	</g>
</g>
<circle class="st5" cx="213" cy="39.3" r="12.5"/>
<circle class="st1" cx="212.6" cy="469.2" r="12.5"/>
<circle class="st5" cx="1077.4" cy="36.6" r="12.5"/>
<circle class="st1" cx="1079.7" cy="169.7" r="12.5"/>
<circle class="st5" cx="1077.4" cy="290.3" r="12.5"/>
<circle class="st5" cx="1077.4" cy="415.4" r="12.5"/>
<circle class="st5" cx="1077.4" cy="544" r="12.5"/>
<g>
	<g>
		<polyline class="st4" points="478.6,108.6 296.3,108.6 296.3,469.2 265.9,469.2 		"/>
		<g>
			<polygon class="st5" points="473.6,102 476.4,108.6 473.6,115.3 489.4,108.6 			"/>
		</g>
	</g>
</g>
<g>
	<g>
		<polyline class="st6" points="484.5,684.8 302.7,684.8 224.8,684.8 		"/>
		<g>
			<polygon class="st5" points="479.5,678.1 482.3,684.8 479.5,691.4 495.3,684.8 			"/>
		</g>
	</g>
</g>
<g>
	<g>
		<polyline class="st7" points="501.9,97.8 501.9,84.6 790.8,84.6 790.8,87.2 		"/>
		<g>
			<polygon class="st5" points="784.1,82.2 790.8,85 797.4,82.2 790.8,98 			"/>
		</g>
	</g>
</g>
<g>
	<g>
		<polyline class="st4" points="718.5,87 718.5,160.4 790.8,160.4 790.8,168.4 		"/>
		<g>
			<polygon class="st5" points="784.1,163.3 790.8,166.2 797.4,163.3 790.8,179.1 			"/>
		</g>
	</g>
</g>
<g>
	<g>
		<polyline class="st4" points="718.5,156 718.5,236.1 790.8,236.1 790.8,245.1 		"/>
		<g>
			<polygon class="st5" points="784.1,240.1 790.8,242.9 797.4,240.1 790.8,255.9 			"/>
		</g>
	</g>
</g>
<g>
	<g>
		<polyline class="st4" points="718.5,232.5 718.5,312.6 790.8,312.6 790.8,321.7 		"/>
		<g>
			<polygon class="st5" points="784.1,316.6 790.8,319.5 797.4,316.6 790.8,332.4 			"/>
		</g>
	</g>
</g>
<g>
	<g>
		<polyline class="st7" points="636.9,268.4 636.9,191.6 767.5,191.6 		"/>
		<g>
			<polygon class="st5" points="762.5,198.3 765.3,191.6 762.5,185 778.3,191.6 			"/>
		</g>
	</g>
</g>
<g>
	<g>
		<polyline class="st7" points="586.4,377.3 790.8,377.3 790.8,368.2 		"/>
		<g>
			<polygon class="st5" points="797.4,373.2 790.8,370.4 784.1,373.2 790.8,357.4 			"/>
		</g>
	</g>
</g>
<g>
	<g>
		<line class="st7" x1="586.4" y1="519" x2="768.3" y2="519"/>
		<g>
			<polygon class="st5" points="763.2,525.6 766,519 763.2,512.3 779,519 			"/>
		</g>
	</g>
</g>
<g>
	<g>
		<line class="st8" x1="501.9" y1="131.9" x2="501.9" y2="376"/>
		<g>
			<polygon class="st5" points="495.2,136.9 501.9,134.1 508.6,136.9 501.9,121.1 			"/>
		</g>
		<g>
			<polygon class="st5" points="495.2,370.9 501.9,373.8 508.6,370.9 501.9,386.7 			"/>
		</g>
	</g>
</g>
<g>
	<g>
		<line class="st6" x1="501.7" y1="421.9" x2="501.7" y2="659"/>
		<g>
			<polygon class="st5" points="495,426.9 501.7,424.1 508.3,426.9 501.7,411.1 			"/>
		</g>
		<g>
			<polygon class="st5" points="495,654 501.7,656.8 508.3,654 501.7,669.8 			"/>
		</g>
	</g>
</g>
<g>
	<g>
		<polyline class="st8" points="483.9,123.2 453.6,153.5 453.6,684.8 		"/>
		<g>
			<polygon class="st5" points="475.6,122 482.3,124.8 485,131.5 491.5,115.6 			"/>
		</g>
	</g>
</g>
<g>
	<g>
		<polyline class="st6" points="789.3,445.8 789.3,450.7 789.3,495.7 789.3,501.1 		"/>
		<g>
			<polygon class="st5" points="782.6,450.8 789.3,448 795.9,450.9 789.3,435.1 			"/>
		</g>
		<g>
			<polygon class="st5" points="782.6,496 789.3,498.8 795.9,496 789.3,511.8 			"/>
		</g>
	</g>
</g>
<g>
	<g>
		<polyline class="st6" points="768.4,204.2 739.3,216.5 739.3,403.3 768.3,414.8 		"/>
		<g>
			<polygon class="st5" points="761.1,200 766.3,205.1 766.3,212.3 778.3,200 			"/>
		</g>
		<g>
			<polygon class="st5" points="761.1,419.1 766.2,414 766,406.8 778.3,418.8 			"/>
		</g>
	</g>
</g>
<g>
	<g>
		<polyline class="st6" points="790.8,415.4 790.8,399.2 816.3,385.2 816.3,287.3 807,281.3 		"/>
		<g>
			<polygon class="st5" points="814.9,278.5 808.9,282.5 807.7,289.7 798,275.5 			"/>
		</g>
	</g>
</g>
<g>
	<g>
		<line class="st6" x1="816.3" y1="385.2" x2="804.4" y2="363.5"/>
		<g>
			<polygon class="st5" points="812.7,364.7 805.5,365.4 801,371.1 799.3,354 			"/>
		</g>
	</g>
</g>
<g>
	<g>
		<line class="st4" x1="803.3" y1="36.6" x2="1054.2" y2="36.6"/>
		<g>
			<polygon class="st5" points="1049.1,43.2 1052,36.6 1049.1,29.9 1064.9,36.6 			"/>
		</g>
	</g>
</g>
<path class="st9" d="M1064.9,415.4"/>
<g>
	<g>
		<polyline class="st7" points="803.3,109.1 1027.7,109.1 1027.7,251.3 1077.4,251.3 1077.4,267 		"/>
		<g>
			<polygon class="st5" points="1070.8,262 1077.4,264.8 1084.1,262 1077.4,277.8 			"/>
		</g>
	</g>
</g>
<g>
	<g>
		<polyline class="st7" points="803.3,191.6 1003.9,191.6 1003.9,290.3 1054.2,290.3 		"/>
		<g>
			<polygon class="st5" points="1049.1,296.9 1052,290.3 1049.1,283.6 1064.9,290.3 			"/>
		</g>
	</g>
</g>
<g>
	<g>
		<polyline class="st7" points="1003.9,290.3 1003.9,415.4 1054.2,415.4 		"/>
		<g>
			<polygon class="st5" points="1049.1,422.1 1052,415.4 1049.1,408.8 1064.9,415.4 			"/>
		</g>
	</g>
</g>
<g>
	<g>
		<polyline class="st7" points="1060.5,272.5 1057.3,268.4 975.3,268.4 975.3,393.3 1052.6,393.3 1060.3,399.8 		"/>
		<g>
			<polygon class="st5" points="1062.6,264.4 1059.1,270.7 1052.1,272.6 1067.2,280.9 			"/>
		</g>
		<g>
			<polygon class="st5" points="1052.1,401.7 1058.6,398.4 1060.7,391.5 1068.5,406.7 			"/>
		</g>
	</g>
</g>
<line class="st10" x1="975.3" y1="393.3" x2="975.3" y2="519"/>
<g>
	<g>
		<polyline class="st7" points="975.3,519 975.3,657.2 1052.6,657.2 1063.1,666.1 		"/>
		<g>
			<polygon class="st5" points="1054.9,667.9 1061.4,664.6 1063.5,657.7 1071.3,672.9 			"/>
		</g>
	</g>
</g>
<g>
	<g>
		<polyline class="st7" points="803.3,344.9 949.1,344.9 949.1,310.3 1055.9,310.3 1060.5,306.1 		"/>
		<g>
			<polygon class="st5" points="1061.2,314.5 1058.8,307.6 1052.3,304.6 1068.5,299 			"/>
		</g>
	</g>
</g>
<g>
	<g>
		<line class="st7" x1="975.3" y1="544" x2="1054.2" y2="544"/>
		<g>
			<polygon class="st5" points="1049.1,550.6 1052,544 1049.1,537.3 1064.9,544 			"/>
		</g>
	</g>
</g>
<g>
	<g>
		<polyline class="st7" points="803.3,519 1046.7,519 1059.9,528.8 		"/>
		<g>
			<polygon class="st5" points="1051.8,531.1 1058.1,527.5 1059.8,520.5 1068.5,535.3 			"/>
		</g>
	</g>
</g>
<g>
	<g>
		<polyline class="st7" points="912.9,519 912.9,624.1 1102.6,624.1 1102.6,653.3 1102.6,659.6 1095.9,665.7 		"/>
		<g>
			<polygon class="st5" points="1095.2,657.4 1097.6,664.2 1104.1,667.2 1088,672.9 			"/>
		</g>
	</g>
</g>
<g>
	<g>
		<polyline class="st6" points="636.9,427.9 636.9,580.8 1077.4,580.8 1077.4,600.5 1077.4,659 		"/>
		<g>
			<polygon class="st5" points="1070.8,654 1077.4,656.8 1084.1,654 1077.4,669.8 			"/>
		</g>
	</g>
</g>
<g>
	<g>
		<polyline class="st7" points="949.1,344.9 949.1,702.5 1052.6,702.5 1062.1,697 		"/>
		<g>
			<polygon class="st5" points="1061,705.3 1060.1,698.1 1054.3,693.8 1071.3,691.6 			"/>
		</g>
	</g>
</g>
<g>
	<g>
		<polyline class="st7" points="790.8,291.6 790.8,296.6 586.4,296.6 586.4,721.5 501.9,721.5 501.9,694.8 		"/>
		<g>
			<polygon class="st5" points="784.1,296.7 790.8,293.9 797.4,296.7 790.8,280.9 			"/>
		</g>
	</g>
</g>
<g>
	<g>
		<line class="st8" x1="525.1" y1="682.3" x2="767.5" y2="682.3"/>
		<g>
			<polygon class="st5" points="530.2,688.9 527.4,682.3 530.2,675.6 514.4,682.3 			"/>
		</g>
		<g>
			<polygon class="st5" points="762.5,688.9 765.3,682.3 762.5,675.6 778.3,682.3 			"/>
		</g>
	</g>
</g>
<g>
	<g>
		<polyline class="st7" points="1027.7,251.3 1027.7,446.5 1077.4,446.5 1077.4,438.7 		"/>
		<g>
			<polygon class="st5" points="1084.1,443.7 1077.4,440.9 1070.8,443.7 1077.4,427.9 			"/>
		</g>
	</g>
</g>
<g>
	<g>
		<line class="st6" x1="1077.4" y1="302.8" x2="1077.4" y2="392.2"/>
		<g>
			<polygon class="st5" points="1070.8,387.1 1077.4,390 1084.1,387.1 1077.4,402.9 			"/>
		</g>
	</g>
</g>
<g>
	<g>
		<polyline class="st4" points="225.1,469.2 265.9,469.2 265.9,60.9 772.8,60.9 781.1,52.8 		"/>
		<g>
			<polygon class="st5" points="782.2,61.1 779.6,54.4 772.9,51.6 788.8,45.3 			"/>
		</g>
	</g>
</g>
<g>
	<g>
		<line class="st4" x1="225.5" y1="39.3" x2="767.5" y2="39.3"/>
		<g>
			<polygon class="st5" points="762.5,46 765.3,39.3 762.5,32.6 778.3,39.3 			"/>
		</g>
	</g>
</g>
<circle class="st5" cx="790.8" cy="38.9" r="12.5"/>
<circle class="st5" cx="790.8" cy="109.1" r="12.5"/>
<circle class="st5" cx="790.8" cy="191.6" r="12.5"/>
<circle class="st5" cx="790.8" cy="519" r="12.5"/>
<g>
	<g>
		<polyline class="st7" points="636.9,191.6 636.9,108.6 767.5,108.6 		"/>
		<g>
			<polygon class="st5" points="762.5,115.3 765.3,108.6 762.5,102 778.3,108.6 			"/>
		</g>
	</g>
</g>
<g>
	<g>
		<polyline class="st11" points="478.6,399.2 453.6,399.2 453.6,684.8 223.8,684.8 		"/>
		<g>
			<polygon class="st3" points="473.6,392.6 476.4,399.2 473.6,405.9 489.4,399.2 			"/>
		</g>
	</g>
</g>
<circle class="st1" cx="790.8" cy="268.4" r="12.5"/>
<circle class="st1" cx="790.8" cy="344.9" r="12.5"/>
<g>
	<g>
		<line class="st11" x1="212.6" y1="492.5" x2="212.6" y2="661.5"/>
		<g>
			<polygon class="st3" points="205.9,497.5 212.6,494.7 219.2,497.5 212.6,481.7 			"/>
		</g>
		<g>
			<polygon class="st3" points="205.9,656.5 212.6,659.3 219.2,656.5 212.6,672.3 			"/>
		</g>
	</g>
</g>
<circle class="st5" cx="501.9" cy="108.6" r="12.5"/>
<circle class="st5" cx="501.9" cy="682.3" r="12.5"/>
<circle class="st12" cx="519" cy="122.7" r="4"/>
<circle class="st12" cx="519" cy="140.9" r="4"/>
<circle class="st5" cx="810.2" cy="66.4" r="4"/>
<circle class="st5" cx="810.2" cy="49.4" r="4"/>
<g>
	<g>
		<polyline class="st7" points="790.8,694.5 790.8,721.5 1077.4,721.5 1077.4,705.5 		"/>
		<g>
			<polygon class="st5" points="1084.1,710.6 1077.4,707.7 1070.8,710.6 1077.4,694.8 			"/>
		</g>
	</g>
</g>
<circle class="st5" cx="1079.7" cy="682.3" r="12.5"/>
<circle class="st5" cx="1107.2" cy="27.6" r="4"/>
<circle class="st5" cx="1107.2" cy="44.4" r="4"/>
<circle class="st5" cx="790.8" cy="682" r="12.5"/>
<circle class="st1" cx="212.3" cy="684.8" r="12.5"/>
<g>
	<g>
		<polyline class="st7" points="718.5,312.6 718.5,448.1 768.1,448.1 773.3,443.2 		"/>
		<g>
			<polygon class="st5" points="774.2,451.6 771.7,444.7 765.1,441.8 781.2,435.9 			"/>
		</g>
	</g>
</g>
<g>
	<g>
		<polyline class="st4" points="525.1,108.7 615.4,108.7 615.4,74.6 789.3,74.6 792.5,74.6 792.3,62.7 		"/>
		<g>
			<polygon class="st5" points="530.2,115.3 527.4,108.7 530.2,102 514.4,108.7 			"/>
		</g>
		<g>
			<polygon class="st5" points="799,67.6 792.3,64.9 785.7,67.9 792,51.9 			"/>
		</g>
	</g>
</g>
<g>
	<g>
		<polyline class="st7" points="1077.5,521 1077.5,500.7 949.1,500.7 		"/>
		<g>
			<polygon class="st5" points="1084.2,515.9 1077.5,518.8 1070.9,515.9 1077.5,531.7 			"/>
		</g>
	</g>
</g>
<circle class="st5" cx="118.4" cy="29.3" r="4"/>
<circle class="st5" cx="118.4" cy="49.7" r="4"/>
<circle class="st1" cx="501.9" cy="399.2" r="12.5"/>
<circle class="st13" cx="232.5" cy="505.5" r="4"/>
<circle class="st13" cx="232.9" cy="489.7" r="4"/>
<circle class="st13" cx="232" cy="626.2" r="4"/>
<circle class="st13" cx="232" cy="645.2" r="4"/>
<circle class="st13" cx="232" cy="664.8" r="4"/>
<circle class="st13" cx="804.8" cy="447.3" r="4"/>
<circle class="st13" cx="804.8" cy="466.2" r="4"/>
<circle class="st13" cx="804.8" cy="481.6" r="4"/>
<circle class="st5" cx="810.2" cy="664.2" r="4"/>
<circle class="st5" cx="809.8" cy="693.3" r="4"/>
<circle class="st5" cx="1106.4" cy="265.2" r="4"/>
<circle class="st5" cx="1106.4" cy="282" r="4"/>
<circle class="st5" cx="1106.4" cy="313.6" r="4"/>
<circle class="st5" cx="1106.7" cy="297.9" r="4"/>
<circle class="st5" cx="1107.4" cy="402.9" r="4"/>
<circle class="st5" cx="1107.4" cy="419.8" r="4"/>
<circle class="st5" cx="1107.4" cy="451.3" r="4"/>
<circle class="st5" cx="1107.8" cy="435.6" r="4"/>
<circle class="st5" cx="1108.2" cy="386.1" r="4"/>
<circle class="st13" cx="827.6" cy="280.9" r="4"/>
<circle class="st13" cx="827.6" cy="296.5" r="4"/>
<g>
	<g>
		<polyline class="st7" points="804.3,429 1046,429 1057.7,426.1 		"/>
		<g>
			<polygon class="st5" points="1054.4,433.8 1055.5,426.6 1051.2,420.8 1068.1,423.6 			"/>
		</g>
	</g>
</g>
<circle class="st1" cx="790.8" cy="427.9" r="12.5"/>
<g>
	<circle class="st14" cx="624.8" cy="803" r="14.2"/>
	<rect x="648.8" y="799.9" class="st15" width="54.1" height="28.3"/>
	<text transform="matrix(1 0 0 1 648.8361 809.5316)" class="st16 st17 st18">核心</text>
</g>
<line class="st15" x1="528.2" y1="838.7" x2="785.3" y2="838.7"/>
<g>
	<g>
		<polyline class="st11" points="767.5,268.4 636.9,268.4 636.9,399.2 592.4,399.2 514.4,399.2 		"/>
		<g>
			<polygon class="st3" points="762.5,261.7 765.3,268.4 762.5,275.1 778.3,268.4 			"/>
		</g>
	</g>
</g>
<g>
	<g>
		<line class="st11" x1="767.5" y1="344.9" x2="636.9" y2="344.9"/>
		<g>
			<polygon class="st3" points="762.5,338.3 765.3,344.9 762.5,351.6 778.3,344.9 			"/>
		</g>
	</g>
</g>
<g>
	<g>
		<polyline class="st11" points="636.9,399.2 636.9,427.9 767.5,427.9 		"/>
		<g>
			<polygon class="st3" points="762.5,434.6 765.3,427.9 762.5,421.3 778.3,427.9 			"/>
		</g>
	</g>
</g>
<g>
	<g>
		<polyline class="st11" points="803.3,268.4 975.3,268.4 975.3,169.7 975.3,150.1 975.3,135.3 975.3,126.5 1079.7,126.5 
			1079.7,146.5 		"/>
		<g>
			<polygon class="st3" points="1073,141.4 1079.7,144.2 1086.3,141.4 1079.7,157.2 			"/>
		</g>
	</g>
</g>
<g>
	<g>
		<polyline class="st11" points="803.3,427.9 927.5,427.9 927.5,156 927.5,144.8 1057.6,144.8 1064.3,152.3 		"/>
		<g>
			<polygon class="st3" points="1055.9,152.9 1062.8,150.6 1065.9,144.1 1071.3,160.4 			"/>
		</g>
	</g>
</g>
<g>
	<g>
		<polyline class="st11" points="798.3,344.9 949.1,344.9 949.1,310.3 988.7,310.3 988.7,169.7 1055.4,169.7 		"/>
		<g>
			<polygon class="st3" points="1050.4,176.4 1053.2,169.7 1050.4,163.1 1066.2,169.7 			"/>
		</g>
	</g>
</g>
<g>
	<g>
		<polyline class="st7" points="1062.3,435.2 1059.7,437.8 927.7,437.8 927.7,721.5 790.8,721.5 790.8,685.6 		"/>
		<g>
			<polygon class="st5" points="1054,434 1060.7,436.8 1063.3,443.5 1069.9,427.7 			"/>
		</g>
	</g>
</g>
<rect x="42.3" y="489.5" class="st15" width="72" height="12"/>
<text transform="matrix(1 0 0 1 54.2978 499.0799)" class="st16 st17 st18">程式語言</text>
<rect x="131.7" y="43.4" class="st15" width="73.5" height="25.7"/>
<text transform="matrix(1 0 0 1 131.6914 53.0411)" class="st5 st17 st18">作業系統</text>
<rect x="245.8" y="485" class="st15" width="101.7" height="14.9"/>
<text transform="matrix(1 0 0 1 245.7714 494.6101)" class="st16 st17 st18">資料結構</text>
<rect x="132.8" y="23.3" class="st15" width="73.5" height="26.3"/>
<text transform="matrix(1 0 0 1 132.7693 32.8573)" class="st5 st17 st18">計算機結構</text>
<g>
	<rect x="233.9" y="589.1" class="st15" width="85.4" height="30.5"/>
	<text transform="matrix(1 0 0 1 233.8696 598.7374)" class="st16 st17 st18">計算數學</text>
</g>
<g>
	<rect x="245.8" y="620.5" class="st15" width="85.4" height="15.2"/>
	<text transform="matrix(1 0 0 1 245.7548 630.13)" class="st16 st17 st18">機率</text>
</g>
<g>
	<rect x="245.2" y="639.2" class="st15" width="85.4" height="15.2"/>
	<text transform="matrix(1 0 0 1 245.1977 648.8292)" class="st16 st17 st18">線性代數</text>
</g>
<g>
	<rect x="246.1" y="658.6" class="st15" width="85.4" height="15.2"/>
	<text transform="matrix(1 0 0 1 246.0825 668.2218)" class="st16 st17 st18">統計</text>
</g>
<g>
	<rect x="245.9" y="499.7" class="st15" width="58.5" height="18.1"/>
	<text transform="matrix(1 0 0 1 245.896 509.2683)" class="st16 st17 st18">演算法</text>
</g>
<rect x="535.2" y="120.4" class="st15" width="73.5" height="12.9"/>
<text transform="matrix(1 0 0 1 535.2123 129.9846)" class="st5 st17 st18">資料科學</text>
<rect x="535.2" y="139.2" class="st15" width="73.5" height="12.9"/>
<text transform="matrix(1 0 0 1 535.2123 148.781)" class="st5 st17 st18">資料探勘</text>
<g>
	<rect x="519.8" y="364.1" class="st15" width="63.5" height="26.1"/>
	<text transform="matrix(1 0 0 1 519.7576 373.7333)" class="st16 st17 st18">機器學習</text>
</g>
<rect x="518.1" y="642.2" class="st15" width="66.8" height="25.7"/>
<text transform="matrix(1 0 0 1 518.0789 651.7783)" class="st5 st17 st18">人工智慧</text>
<rect x="821.6" y="61.4" class="st15" width="122.5" height="12.9"/>
<text transform="matrix(1 0 0 1 821.6419 70.9893)" class="st5 st17 st18">平行演算法</text>
<rect x="822.7" y="45.3" class="st15" width="109.1" height="13.2"/>
<text transform="matrix(1 0 0 1 822.7299 54.8736)" class="st5 st17 st18">平行運算</text>
<rect x="812.7" y="118.7" class="st15" width="161.9" height="43.9"/>
<text transform="matrix(1 0 0 1 812.7298 128.263)" class="st5 st17 st18">資料視覺化</text>
<rect x="809.5" y="197.8" class="st15" width="129.6" height="53.4"/>
<text transform="matrix(1 0 0 1 809.4857 207.7354)" class="st5 st17 st18">巨量資料/</text>
<text transform="matrix(1 0 0 1 809.4857 222.1354)" class="st5 st17 st18">大數據分析</text>
<g>
	<rect x="840.9" y="275.6" class="st15" width="86.2" height="12.2"/>
	<text transform="matrix(1 0 0 1 840.9038 285.1623)" class="st16 st17 st18">深度學習</text>
</g>
<g>
	<rect x="831.2" y="353.4" class="st15" width="101.9" height="23.5"/>
	<text transform="matrix(1 0 0 1 831.2082 363.0252)" class="st16 st17 st18">強化學習</text>
</g>
<g>
	<rect x="817.3" y="461.1" class="st15" width="73.5" height="12.9"/>
	<text transform="matrix(1 0 0 1 817.3427 470.7231)" class="st16 st17 st18">貝氏分析</text>
</g>
<g>
	<rect x="817.3" y="477" class="st15" width="115.8" height="12.9"/>
	<text transform="matrix(1 0 0 1 817.3437 486.5903)" class="st16 st17 st18">機率模型</text>
</g>
<g>
	<rect x="817.3" y="443.2" class="st15" width="101.9" height="9.7"/>
	<text transform="matrix(1 0 0 1 817.3427 452.79)" class="st16 st17 st18">圖模型</text>
</g>
<rect x="810.8" y="526.7" class="st15" width="107.3" height="17"/>
<text transform="matrix(1 0 0 1 810.8284 536.3289)" class="st5 st17 st18">智慧代理</text>
<rect x="808.9" y="607.9" class="st15" width="116.7" height="25.2"/>
<rect x="813.1" y="655.1" class="st15" width="96.3" height="28.7"/>
<rect x="825.2" y="660.8" class="st15" width="139" height="41.6"/>
<text transform="matrix(1 0 0 1 825.1575 670.8057)" class="st5 st17 st18">演化計算</text>
<text transform="matrix(1 0 0 1 825.1575 699.6057)" class="st5 st17 st18">模糊系統</text>
<rect x="1109" y="685.5" class="st15" width="101.9" height="12.9"/>
<text transform="matrix(1 0 0 1 1108.9635 695.128)" class="st5 st17 st18">機器人</text>
<g>
	<rect x="1126.1" y="22.6" class="st15" width="93" height="10.2"/>
	<text transform="matrix(1 0 0 1 1126.0864 32.1755)" class="st5 st17 st18">雲端系統</text>
</g>
<rect x="1125.1" y="430.3" class="st15" width="96.3" height="28.7"/>
<g>
	<rect x="1126.5" y="40.7" class="st15" width="110" height="10.2"/>
	<text transform="matrix(1 0 0 1 1126.5347 50.2785)" class="st5 st17 st18">雲端運算</text>
</g>
<g>
	<rect x="1108.5" y="166.7" class="st15" width="93" height="10.2"/>
	<text transform="matrix(1 0 0 1 1108.5392 176.2551)" class="st16 st17 st18">電腦視覺</text>
</g>
<rect x="1125.3" y="260" class="st15" width="111.3" height="10.2"/>
<text transform="matrix(1 0 0 1 1125.2524 269.6164)" class="st5 st17 st18">語音辨識</text>
<rect x="1123.9" y="309.4" class="st15" width="110" height="25.1"/>
<text transform="matrix(1 0 0 1 1123.939 318.9641)" class="st5 st17 st18">自然語言處理</text>
<rect x="1125.3" y="293.4" class="st15" width="93" height="10.2"/>
<text transform="matrix(1 0 0 1 1125.2524 302.9748)" class="st5 st17 st18">文字探勘</text>
<rect x="1125.3" y="277.4" class="st15" width="118.4" height="10.2"/>
<text transform="matrix(1 0 0 1 1125.2524 286.9855)" class="st5 st17 st18">資訊檢索</text>
<rect x="1126" y="399.9" class="st15" width="93" height="10.2"/>
<text transform="matrix(1 0 0 1 1125.9917 409.4733)" class="st5 st17 st18">精準醫學</text>
<rect x="1126.4" y="415.7" class="st15" width="93" height="10.2"/>
<text transform="matrix(1 0 0 1 1126.439 425.2849)" class="st5 st17 st18">金融科技</text>
<rect x="1125.8" y="430.4" class="st15" width="93" height="10.2"/>
<text transform="matrix(1 0 0 1 1125.7681 440.0046)" class="st5 st17 st18">製造</text>
<rect x="1126.2" y="447.1" class="st15" width="93" height="10.2"/>
<text transform="matrix(1 0 0 1 1126.2153 456.6813)" class="st5 st17 st18">社群網路</text>
<rect x="1108.5" y="536.6" class="st15" width="110.3" height="22"/>
<text transform="matrix(1 0 0 1 1108.5278 546.1559)" class="st5 st17 st18">電腦對局</text>
<rect x="1126.4" y="382.7" class="st15" width="111.3" height="10.2"/>
<text transform="matrix(1 0 0 1 1126.439 392.3395)" class="st5 st17 st18">生物資訊</text>
<g>
	<text transform="matrix(1 0 0 1 840.9045 300.213)" class="st16 st17 st18">類神經網路</text>
</g>
</svg>
