<?xml version="1.0" encoding="utf-8"?>
<!-- Generator: Adobe Illustrator 21.1.0, SVG Export Plug-In . SVG Version: 6.00 Build 0)  -->
<svg version="1.1" id="Layer_1" xmlns="http://www.w3.org/2000/svg" xmlns:xlink="http://www.w3.org/1999/xlink" x="0px" y="0px"
	 viewBox="0 0 1313.5 888.2" style="enable-background:new 0 0 1313.5 888.2;" xml:space="preserve">
<style type="text/css">
	.st0{fill:#FFFFFF;}
	.st1{fill:none;stroke:#808080;stroke-width:6;stroke-linecap:square;stroke-linejoin:bevel;}
	.st2{fill:#808080;}
	.st3{fill:#82027E;}
	.st4{fill:none;stroke:#820C7D;stroke-width:6;stroke-miterlimit:10;}
	.st5{fill:#820C7D;}
	.st6{fill:none;stroke:#808080;stroke-width:6;stroke-linejoin:bevel;}
	.st7{fill:none;stroke:#F77B11;stroke-width:6;stroke-linecap:square;stroke-linejoin:bevel;}
	.st8{fill:#F77B11;}
	.st9{fill:none;stroke:#C2000B;stroke-width:6;stroke-linejoin:bevel;}
	.st10{fill:#C2000B;}
	.st11{fill:none;stroke:#808080;stroke-width:6;stroke-linecap:square;stroke-linejoin:round;}
	.st12{fill:none;stroke:#808080;stroke-width:6;stroke-miterlimit:10;}
	.st13{fill:none;stroke:#820C7D;stroke-width:6;stroke-linecap:square;stroke-linejoin:bevel;}
	.st14{fill:none;stroke:#FEA621;stroke-width:6;stroke-miterlimit:10;}
	.st15{fill:none;stroke:#808080;stroke-width:6;stroke-linecap:square;stroke-linejoin:bevel;stroke-miterlimit:10;}
	.st16{fill:#333333;}
	.st17{fill:none;}
	.st18{fill:#1A1A1A;}
	.st19{font-family:'MicrosoftJhengHeiRegular';}
	.st20{font-size:21px;}
	.st21{fill:#01A0C6;}
	.st22{fill:none;stroke:#01A0C6;stroke-width:6;stroke-linecap:square;stroke-linejoin:bevel;}
	.st23{fill:none;stroke:#01A0C6;stroke-width:6;stroke-linecap:square;stroke-linejoin:round;}
	.st24{fill:#8E1385;}
	.st25{fill:#383838;}
	.st26{font-size:18px;}
	.st27{fill:#189DC5;}
	.st28{fill:none;stroke:#820C7D;stroke-width:6;stroke-linecap:square;stroke-linejoin:bevel;stroke-miterlimit:10;}
	.st29{fill:none;stroke:#C2000B;stroke-width:6;stroke-linecap:square;stroke-linejoin:bevel;}
	.st30{fill:none;stroke:#808080;stroke-width:6;stroke-linecap:square;stroke-linejoin:round;stroke-miterlimit:10;}
	.st31{font-size:12px;}
	.st32{font-family:'KozGoPr6N-Regular-83pv-RKSJ-H';}
	.st33{font-size:12.1119px;}
	.st34{font-family:'Lato-Medium';}
</style>
<rect y="0" class="st0" width="1313.5" height="888.2"/>
<g>
	<g>
		<polyline class="st1" points="797.8,394.2 948.6,394.2 948.6,359.6 988.2,359.6 988.2,219 1054.9,219 		"/>
		<g>
			<polygon class="st2" points="1049.8,225.6 1052.7,219 1049.8,212.3 1065.6,219 			"/>
		</g>
	</g>
</g>
<circle class="st3" cx="69.3" cy="517.5" r="12.5"/>
<g>
	<g>
		<line class="st4" x1="195.6" y1="517.7" x2="79.2" y2="517.7"/>
		<g>
			<polygon class="st5" points="187.7,511 194.4,517.7 187.7,524.4 193.4,524.4 200.1,517.7 193.4,511 			"/>
		</g>
	</g>
</g>
<g>
	<g>
		<line class="st6" x1="213" y1="110.8" x2="213" y2="495.5"/>
		<g>
			<polygon class="st2" points="206.3,115.9 213,113.1 219.7,115.9 213,100.1 			"/>
		</g>
		<g>
			<polygon class="st2" points="206.3,490.4 213,493.3 219.7,490.4 213,506.2 			"/>
		</g>
	</g>
</g>
<circle class="st2" cx="213" cy="88.8" r="12.5"/>
<circle class="st3" cx="212.6" cy="518.7" r="12.5"/>
<circle class="st2" cx="1077.4" cy="86.1" r="12.5"/>
<circle class="st2" cx="1079.7" cy="219.2" r="12.5"/>
<circle class="st2" cx="1077.4" cy="339.8" r="12.5"/>
<circle class="st3" cx="1077.4" cy="464.9" r="12.5"/>
<circle class="st2" cx="1077.4" cy="593.5" r="12.5"/>
<g>
	<g>
		<polyline class="st7" points="484.5,734.3 302.7,734.3 224.8,734.3 		"/>
		<g>
			<polygon class="st8" points="479.5,727.6 482.3,734.3 479.5,740.9 495.3,734.3 			"/>
		</g>
	</g>
</g>
<g>
	<g>
		<polyline class="st9" points="718.5,136.5 718.5,209.9 790.8,209.9 790.8,217.9 		"/>
		<g>
			<polygon class="st10" points="784.1,212.8 790.8,215.7 797.4,212.8 790.8,228.6 			"/>
		</g>
	</g>
</g>
<g>
	<g>
		<polyline class="st6" points="718.5,282 718.5,362.1 790.8,362.1 790.8,371.2 		"/>
		<g>
			<polygon class="st2" points="784.1,366.1 790.8,369 797.4,366.1 790.8,381.9 			"/>
		</g>
	</g>
</g>
<g>
	<g>
		<polyline class="st1" points="586.4,426.8 790.8,426.8 790.8,417.7 		"/>
		<g>
			<polygon class="st2" points="797.4,422.7 790.8,419.9 784.1,422.7 790.8,406.9 			"/>
		</g>
	</g>
</g>
<g>
	<g>
		<line class="st1" x1="586.4" y1="568.5" x2="768.3" y2="568.5"/>
		<g>
			<polygon class="st2" points="763.2,575.1 766,568.5 763.2,561.8 779,568.5 			"/>
		</g>
	</g>
</g>
<g>
	<g>
		<line class="st11" x1="501.9" y1="181.4" x2="501.9" y2="425.5"/>
		<g>
			<polygon class="st2" points="495.2,186.4 501.9,183.6 508.6,186.4 501.9,170.6 			"/>
		</g>
		<g>
			<polygon class="st2" points="495.2,420.4 501.9,423.3 508.6,420.4 501.9,436.2 			"/>
		</g>
	</g>
</g>
<g>
	<g>
		<line class="st12" x1="501.7" y1="471.4" x2="501.7" y2="708.5"/>
		<g>
			<polygon class="st2" points="495,476.4 501.7,473.6 508.3,476.4 501.7,460.6 			"/>
		</g>
		<g>
			<polygon class="st2" points="495,703.5 501.7,706.3 508.3,703.5 501.7,719.3 			"/>
		</g>
	</g>
</g>
<g>
	<g>
		<polyline class="st13" points="453.6,734.3 453.6,203 483.9,172.7 		"/>
		<g>
			<polygon class="st5" points="485,181 482.3,174.3 475.6,171.5 491.5,165.1 			"/>
		</g>
	</g>
</g>
<g>
	<g>
		<polyline class="st12" points="789.3,495.3 789.3,500.2 789.3,545.2 789.3,550.6 		"/>
		<g>
			<polygon class="st2" points="782.6,500.3 789.3,497.5 795.9,500.4 789.3,484.6 			"/>
		</g>
		<g>
			<polygon class="st2" points="782.6,545.5 789.3,548.3 795.9,545.5 789.3,561.3 			"/>
		</g>
	</g>
</g>
<g>
	<g>
		<polyline class="st12" points="768.4,253.7 739.3,266 739.3,452.8 768.3,464.3 		"/>
		<g>
			<polygon class="st2" points="761.1,249.5 766.3,254.6 766.3,261.8 778.3,249.5 			"/>
		</g>
		<g>
			<polygon class="st2" points="761.1,468.6 766.2,463.5 766,456.3 778.3,468.3 			"/>
		</g>
	</g>
</g>
<g>
	<g>
		<polyline class="st12" points="790.8,464.9 790.8,448.7 816.3,434.7 816.3,336.8 807,330.8 		"/>
		<g>
			<polygon class="st2" points="814.9,328 808.9,332 807.7,339.2 798,325 			"/>
		</g>
	</g>
</g>
<g>
	<g>
		<line class="st12" x1="816.3" y1="434.7" x2="804.4" y2="413"/>
		<g>
			<polygon class="st2" points="812.7,414.2 805.5,414.9 801,420.6 799.3,403.5 			"/>
		</g>
	</g>
</g>
<g>
	<g>
		<line class="st6" x1="803.3" y1="86.1" x2="1054.2" y2="86.1"/>
		<g>
			<polygon class="st2" points="1049.1,92.7 1052,86.1 1049.1,79.4 1064.9,86.1 			"/>
		</g>
	</g>
</g>
<path class="st14" d="M1064.9,464.9"/>
<line class="st15" x1="975.3" y1="442.8" x2="975.3" y2="568.5"/>
<g>
	<g>
		<polyline class="st1" points="975.3,568.5 975.3,706.7 1052.6,706.7 1063.1,715.6 		"/>
		<g>
			<polygon class="st2" points="1054.9,717.4 1061.4,714.1 1063.5,707.2 1071.3,722.4 			"/>
		</g>
	</g>
</g>
<g>
	<g>
		<polyline class="st1" points="803.3,394.4 949.1,394.4 949.1,359.8 1055.9,359.8 1060.5,355.6 		"/>
		<g>
			<polygon class="st2" points="1061.2,364 1058.8,357.1 1052.3,354.1 1068.5,348.5 			"/>
		</g>
	</g>
</g>
<g>
	<g>
		<line class="st1" x1="975.3" y1="593.5" x2="1054.2" y2="593.5"/>
		<g>
			<polygon class="st2" points="1049.1,600.1 1052,593.5 1049.1,586.8 1064.9,593.5 			"/>
		</g>
	</g>
</g>
<g>
	<g>
		<polyline class="st1" points="803.3,568.5 1046.7,568.5 1059.9,578.3 		"/>
		<g>
			<polygon class="st2" points="1051.8,580.6 1058.1,577 1059.8,570 1068.5,584.8 			"/>
		</g>
	</g>
</g>
<g>
	<g>
		<polyline class="st1" points="912.9,568.5 912.9,673.6 1102.6,673.6 1102.6,702.8 1102.6,709.1 1095.9,715.2 		"/>
		<g>
			<polygon class="st2" points="1095.2,706.9 1097.6,713.7 1104.1,716.7 1088,722.4 			"/>
		</g>
	</g>
</g>
<g>
	<g>
		<polyline class="st12" points="636.9,477.4 636.9,630.3 1077.4,630.3 1077.4,650 1077.4,708.5 		"/>
		<g>
			<polygon class="st2" points="1070.8,703.5 1077.4,706.3 1084.1,703.5 1077.4,719.3 			"/>
		</g>
	</g>
</g>
<g>
	<g>
		<polyline class="st1" points="949.1,394.4 949.1,752 1052.6,752 1062.1,746.5 		"/>
		<g>
			<polygon class="st2" points="1061,754.8 1060.1,747.6 1054.3,743.3 1071.3,741.1 			"/>
		</g>
	</g>
</g>
<g>
	<g>
		<polyline class="st1" points="790.8,341.1 790.8,346.1 586.4,346.1 586.4,771 501.9,771 501.9,744.3 		"/>
		<g>
			<polygon class="st2" points="784.1,346.2 790.8,343.4 797.4,346.2 790.8,330.4 			"/>
		</g>
	</g>
</g>
<g>
	<g>
		<line class="st7" x1="525.1" y1="731.8" x2="767.5" y2="731.8"/>
		<g>
			<polygon class="st8" points="530.2,738.4 527.4,731.8 530.2,725.1 514.4,731.8 			"/>
		</g>
		<g>
			<polygon class="st8" points="762.5,738.4 765.3,731.8 762.5,725.1 778.3,731.8 			"/>
		</g>
	</g>
</g>
<g>
	<g>
		<line class="st12" x1="1077.4" y1="352.3" x2="1077.4" y2="441.7"/>
		<g>
			<polygon class="st2" points="1070.8,436.6 1077.4,439.5 1084.1,436.6 1077.4,452.4 			"/>
		</g>
	</g>
</g>
<g>
	<g>
		<polyline class="st6" points="225.1,518.7 265.9,518.7 265.9,110.4 772.8,110.4 781.1,102.3 		"/>
		<g>
			<polygon class="st2" points="782.2,110.6 779.6,103.9 772.9,101.1 788.8,94.8 			"/>
		</g>
	</g>
</g>
<g>
	<g>
		<line class="st6" x1="225.5" y1="88.8" x2="767.5" y2="88.8"/>
		<g>
			<polygon class="st2" points="762.5,95.5 765.3,88.8 762.5,82.1 778.3,88.8 			"/>
		</g>
	</g>
</g>
<circle class="st2" cx="790.8" cy="88.4" r="12.5"/>
<circle class="st3" cx="790.8" cy="158.6" r="12.5"/>
<circle class="st3" cx="790.8" cy="241.1" r="12.5"/>
<circle class="st2" cx="790.8" cy="568.5" r="12.5"/>
<g>
	<g>
		<polyline class="st13" points="478.6,448.7 453.6,448.7 453.6,734.3 223.8,734.3 		"/>
		<g>
			<polygon class="st5" points="473.6,442.1 476.4,448.7 473.6,455.4 489.4,448.7 			"/>
		</g>
	</g>
</g>
<circle class="st3" cx="790.8" cy="317.9" r="12.5"/>
<circle class="st2" cx="790.8" cy="394.4" r="12.5"/>
<g>
	<g>
		<line class="st13" x1="212.6" y1="542" x2="212.6" y2="711"/>
		<g>
			<polygon class="st5" points="205.9,547 212.6,544.2 219.2,547 212.6,531.2 			"/>
		</g>
		<g>
			<polygon class="st5" points="205.9,706 212.6,708.8 219.2,706 212.6,721.8 			"/>
		</g>
	</g>
</g>
<circle class="st10" cx="501.9" cy="158.1" r="12.5"/>
<circle class="st8" cx="501.9" cy="731.8" r="12.5"/>
<circle class="st16" cx="519" cy="172.2" r="4"/>
<circle class="st16" cx="519" cy="190.4" r="4"/>
<circle class="st2" cx="810.2" cy="115.9" r="4"/>
<circle class="st2" cx="810.2" cy="98.9" r="4"/>
<g>
	<g>
		<polyline class="st1" points="790.8,744 790.8,771 1077.4,771 1077.4,755 		"/>
		<g>
			<polygon class="st2" points="1084.1,760.1 1077.4,757.2 1070.8,760.1 1077.4,744.3 			"/>
		</g>
	</g>
</g>
<circle class="st2" cx="1079.7" cy="731.8" r="12.5"/>
<circle class="st2" cx="1107.2" cy="77.1" r="4"/>
<circle class="st2" cx="1107.2" cy="93.9" r="4"/>
<circle class="st8" cx="790.8" cy="731.5" r="12.5"/>
<circle class="st3" cx="212.3" cy="734.3" r="12.5"/>
<g>
	<g>
		<polyline class="st1" points="718.5,362.1 718.5,497.6 768.1,497.6 773.3,492.7 		"/>
		<g>
			<polygon class="st2" points="774.2,501.1 771.7,494.2 765.1,491.3 781.2,485.4 			"/>
		</g>
	</g>
</g>
<g>
	<g>
		<polyline class="st6" points="525.1,158.2 615.4,158.2 615.4,124.1 789.3,124.1 792.5,124.1 792.3,112.2 		"/>
		<g>
			<polygon class="st2" points="530.2,164.8 527.4,158.2 530.2,151.5 514.4,158.2 			"/>
		</g>
		<g>
			<polygon class="st2" points="799,117.1 792.3,114.4 785.7,117.4 792,101.4 			"/>
		</g>
	</g>
</g>
<g>
	<g>
		<polyline class="st1" points="1077.5,570.5 1077.5,550.2 949.1,550.2 		"/>
		<g>
			<polygon class="st2" points="1084.2,565.4 1077.5,568.3 1070.9,565.4 1077.5,581.2 			"/>
		</g>
	</g>
</g>
<rect x="19.5" y="21.4" class="st17" width="1271.7" height="36.2"/>
<text transform="matrix(1 0 0 1 529.3237 38.1987)" class="st18 st19 st20">人工智慧其他應用領域人才</text>
<circle class="st2" cx="118.4" cy="78.8" r="4"/>
<circle class="st2" cx="118.4" cy="99.2" r="4"/>
<circle class="st21" cx="501.9" cy="448.7" r="12.5"/>
<circle class="st16" cx="232.5" cy="555" r="4"/>
<circle class="st16" cx="232.9" cy="539.2" r="4"/>
<circle class="st16" cx="232" cy="675.7" r="4"/>
<circle class="st16" cx="232" cy="694.7" r="4"/>
<circle class="st16" cx="232" cy="714.3" r="4"/>
<circle class="st16" cx="804.8" cy="496.8" r="4"/>
<circle class="st16" cx="804.8" cy="515.7" r="4"/>
<circle class="st16" cx="804.8" cy="531.1" r="4"/>
<circle class="st2" cx="1106.4" cy="314.7" r="4"/>
<circle class="st2" cx="1106.4" cy="331.5" r="4"/>
<circle class="st2" cx="1106.4" cy="363.1" r="4"/>
<circle class="st2" cx="1106.7" cy="347.4" r="4"/>
<circle class="st16" cx="1107.4" cy="452.4" r="4"/>
<circle class="st16" cx="1107.4" cy="469.3" r="4"/>
<circle class="st16" cx="1107.4" cy="500.8" r="4"/>
<circle class="st16" cx="1107.8" cy="485.1" r="4"/>
<circle class="st16" cx="1108.2" cy="435.6" r="4"/>
<circle class="st16" cx="827.6" cy="330.4" r="4"/>
<circle class="st16" cx="827.6" cy="346" r="4"/>
<line class="st18" x1="528.2" y1="888.2" x2="785.3" y2="888.2"/>
<g>
	<g>
		<line class="st11" x1="767.5" y1="394.4" x2="636.9" y2="394.4"/>
		<g>
			<polygon class="st2" points="762.5,387.8 765.3,394.4 762.5,401.1 778.3,394.4 			"/>
		</g>
	</g>
</g>
<g>
	<g>
		<polyline class="st11" points="803.3,317.9 975.3,317.9 975.3,219.2 975.3,199.6 975.3,184.8 975.3,176 1079.7,176 1079.7,196 		
			"/>
		<g>
			<polygon class="st2" points="1073,190.9 1079.7,193.7 1086.3,190.9 1079.7,206.7 			"/>
		</g>
	</g>
</g>
<g>
	<g>
		<polyline class="st11" points="803.3,477.4 927.5,477.4 927.5,205.5 927.5,194.3 1057.6,194.3 1064.3,201.8 		"/>
		<g>
			<polygon class="st2" points="1055.9,202.4 1062.8,200.1 1065.9,193.6 1071.3,209.9 			"/>
		</g>
	</g>
</g>
<g>
	<g>
		<polyline class="st13" points="478.6,158.1 296.3,158.1 296.3,518.7 265.9,518.7 223.8,518.7 		"/>
		<g>
			<polygon class="st5" points="473.6,151.5 476.4,158.1 473.6,164.8 489.4,158.1 			"/>
		</g>
	</g>
</g>
<g>
	<g>
		<polyline class="st22" points="636.9,317.9 636.9,448.7 636.9,477.4 767.5,477.4 		"/>
		<g>
			<polygon class="st21" points="762.5,484.1 765.3,477.4 762.5,470.8 778.3,477.4 			"/>
		</g>
	</g>
</g>
<g>
	<g>
		<polyline class="st22" points="636.9,317.9 636.9,241.1 767.5,241.1 		"/>
		<g>
			<polygon class="st21" points="762.5,247.8 765.3,241.1 762.5,234.5 778.3,241.1 			"/>
		</g>
	</g>
</g>
<g>
	<g>
		<polyline class="st22" points="636.9,241.1 636.9,158.1 767.5,158.1 		"/>
		<g>
			<polygon class="st21" points="762.5,164.8 765.3,158.1 762.5,151.5 778.3,158.1 			"/>
		</g>
	</g>
</g>
<g>
	<g>
		<polyline class="st23" points="767.5,317.9 636.9,317.9 636.9,448.7 592.4,448.7 514.4,448.7 		"/>
		<g>
			<polygon class="st21" points="762.5,311.2 765.3,317.9 762.5,324.6 778.3,317.9 			"/>
		</g>
	</g>
</g>
<g>
	<g>
		<polyline class="st9" points="718.5,205.5 718.5,285.6 790.8,285.6 790.8,294.6 		"/>
		<g>
			<polygon class="st10" points="784.1,289.6 790.8,292.4 797.4,289.6 790.8,305.4 			"/>
		</g>
	</g>
</g>
<circle class="st24" cx="521.9" cy="852.5" r="14.2"/>
<circle class="st10" cx="672.6" cy="852.5" r="14.2"/>
<rect x="545.9" y="848.4" class="st17" width="108.2" height="28.3"/>
<text transform="matrix(1 0 0 1 545.922 862.8275)" class="st25 st19 st26">核心</text>
<line class="st24" x1="507.7" y1="888.2" x2="764.7" y2="888.2"/>
<circle class="st27" cx="636.2" cy="852.5" r="14.2"/>
<g>
	<g>
		<polyline class="st11" points="803.3,158.6 1027.7,158.6 1027.7,300.8 1077.4,300.8 1077.4,316.5 		"/>
		<g>
			<polygon class="st2" points="1070.8,311.5 1077.4,314.3 1084.1,311.5 1077.4,327.3 			"/>
		</g>
	</g>
</g>
<polyline class="st28" points="803.3,158.6 1027.7,158.6 1027.7,300.8 1077.4,300.8 "/>
<g>
	<g>
		<polyline class="st11" points="803.3,241.1 1003.9,241.1 1003.9,339.8 1054.2,339.8 		"/>
		<g>
			<polygon class="st2" points="1049.1,346.4 1052,339.8 1049.1,333.1 1064.9,339.8 			"/>
		</g>
	</g>
</g>
<g>
	<g>
		<polyline class="st29" points="501.9,147.3 501.9,134.1 790.8,134.1 790.8,136.7 		"/>
		<g>
			<polygon class="st10" points="784.1,131.7 790.8,134.5 797.4,131.7 790.8,147.5 			"/>
		</g>
	</g>
</g>
<g>
	<g>
		<polyline class="st22" points="804.3,477.2 1046,477.2 1057.7,474.3 		"/>
		<g>
			<polygon class="st21" points="1054.4,482 1055.5,474.9 1051.2,469.1 1068.1,471.8 			"/>
		</g>
	</g>
</g>
<circle class="st27" cx="790.8" cy="477.4" r="12.5"/>
<g>
	<g>
		<polyline class="st13" points="1003.9,339.8 1003.9,464.9 1054.2,464.9 		"/>
		<g>
			<polygon class="st5" points="1049.1,471.6 1052,464.9 1049.1,458.3 1064.9,464.9 			"/>
		</g>
	</g>
</g>
<g>
	<g>
		<polyline class="st13" points="1060.5,322 1057.3,317.9 975.3,317.9 975.3,442.8 1052.6,442.8 1060.3,449.3 		"/>
		<g>
			<polygon class="st5" points="1062.6,313.9 1059.1,320.2 1052.1,322.1 1067.2,330.4 			"/>
		</g>
		<g>
			<polygon class="st5" points="1052.1,451.2 1058.6,447.9 1060.7,441 1068.5,456.2 			"/>
		</g>
	</g>
</g>
<g>
	<g>
		<polyline class="st11" points="1060.5,322 1057.3,317.9 975.3,317.9 		"/>
		<g>
			<polygon class="st2" points="1062.6,313.9 1059.1,320.2 1052.1,322.1 1067.2,330.4 			"/>
		</g>
	</g>
</g>
<line class="st28" x1="975.3" y1="317.9" x2="797.4" y2="317.9"/>
<polyline class="st28" points="803.3,241.1 1003.9,241.1 1003.9,339.8 "/>
<line class="st30" x1="1077.4" y1="300.8" x2="1033.5" y2="300.8"/>
<g>
	<g>
		<polyline class="st13" points="1027.7,300.8 1027.7,496 1077.4,496 1077.4,488.2 		"/>
		<g>
			<polygon class="st5" points="1084.1,493.2 1077.4,490.4 1070.8,493.2 1077.4,477.4 			"/>
		</g>
	</g>
</g>
<circle class="st10" cx="673" cy="852.7" r="14.2"/>
<rect x="738.1" y="848.7" class="st17" width="108.2" height="28.3"/>
<text transform="matrix(1 0 0 1 738.1011 863.0766)" class="st25 st19 st26">選擇</text>
<circle class="st27" cx="636.7" cy="852.7" r="14.2"/>
<g>
	<g>
		<polyline class="st7" points="1062.7,485 1060.1,487.5 928.2,487.5 928.2,771.3 791.2,771.3 791.2,735.3 		"/>
		<g>
			<polygon class="st8" points="1054.4,483.8 1061.1,486.5 1063.8,493.3 1070.4,477.4 			"/>
		</g>
	</g>
</g>
<circle class="st8" cx="709.7" cy="852.7" r="14.2"/>
<rect x="561.9" y="848.4" class="st17" width="108.2" height="28.3"/>
<rect x="42.3" y="539" class="st17" width="72" height="12"/>
<text transform="matrix(1 0 0 1 54.2978 548.5799)" class="st25 st19 st31">程式語言</text>
<g>
	<rect x="131.7" y="92.9" class="st17" width="73.5" height="25.7"/>
	<text transform="matrix(1 0 0 1 131.6914 102.5411)" class="st2 st19 st31">作業系統</text>
</g>
<rect x="245.8" y="534.5" class="st17" width="101.7" height="14.9"/>
<text transform="matrix(1 0 0 1 245.7714 544.1101)" class="st25 st19 st31">資料結構</text>
<g>
	<rect x="132.8" y="72.8" class="st17" width="73.5" height="26.3"/>
	<text transform="matrix(1 0 0 1 132.7693 82.3573)" class="st2 st19 st31">計算機結構</text>
</g>
<g>
	<rect x="245.8" y="670" class="st17" width="85.4" height="15.2"/>
	<text transform="matrix(1 0 0 1 245.7548 679.63)" class="st25 st19 st31">機率</text>
</g>
<g>
	<rect x="245.2" y="688.7" class="st17" width="85.4" height="15.2"/>
	<text transform="matrix(1 0 0 1 245.1977 698.3292)" class="st25 st19 st31">線性代數</text>
</g>
<g>
	<rect x="246.1" y="708.1" class="st17" width="85.4" height="15.2"/>
	<text transform="matrix(1 0 0 1 246.0825 717.7218)" class="st25 st19 st31">統計</text>
</g>
<g>
	<rect x="245.9" y="549.2" class="st17" width="58.5" height="18.1"/>
	<text transform="matrix(1 0 0 1 245.896 558.7683)" class="st25 st19 st31">演算法</text>
</g>
<g>
	<rect x="535.2" y="169.9" class="st17" width="73.5" height="12.9"/>
	<text transform="matrix(1 0 0 1 535.2123 179.4846)" class="st25 st19 st31">資料科學</text>
</g>
<g>
	<rect x="535.2" y="188.7" class="st17" width="73.5" height="12.9"/>
	<text transform="matrix(1 0 0 1 535.2123 198.281)" class="st25 st19 st31">資料探勘</text>
</g>
<g>
	<rect x="519.8" y="413.6" class="st17" width="63.5" height="26.1"/>
	<text transform="matrix(1 0 0 1 519.7576 423.2333)" class="st25 st19 st31">機器學習</text>
</g>
<rect x="518.1" y="691.7" class="st17" width="66.8" height="25.7"/>
<text transform="matrix(1 0 0 1 518.0789 701.2783)" class="st16 st19 st31">人工智慧</text>
<g>
	<rect x="821.6" y="110.9" class="st17" width="122.5" height="12.9"/>
	<text transform="matrix(1 0 0 1 821.6419 120.4893)" class="st2 st19 st31">平行演算法</text>
</g>
<g>
	<rect x="822.7" y="94.8" class="st17" width="109.1" height="13.2"/>
	<text transform="matrix(1 0 0 1 822.7299 104.3736)" class="st2 st19 st31">平行運算</text>
</g>
<g>
	<rect x="812.7" y="168.2" class="st17" width="161.9" height="43.9"/>
	<text transform="matrix(1 0 0 1 812.7298 177.763)" class="st25 st19 st31">資料視覺化</text>
</g>
<g>
	<rect x="809.5" y="247.3" class="st17" width="129.6" height="53.4"/>
	<text transform="matrix(1 0 0 1 809.4857 256.8516)"><tspan x="0" y="0" class="st25 st19 st31">巨量資料/</tspan><tspan x="0" y="14.4" class="st25 st19 st31">大數據分析</tspan></text>
</g>
<g>
	<rect x="840.9" y="325.1" class="st17" width="86.2" height="12.2"/>
	<text transform="matrix(1 0 0 1 840.9038 334.6623)" class="st25 st19 st31">深度學習</text>
</g>
<g>
	<rect x="831.2" y="402.9" class="st17" width="101.9" height="23.5"/>
	<text transform="matrix(1 0 0 1 831.2082 412.5252)" class="st2 st19 st31">增強學習</text>
</g>
<g>
	<rect x="817.3" y="510.6" class="st17" width="73.5" height="12.9"/>
	<text transform="matrix(1 0 0 1 817.3427 520.2231)" class="st25 st19 st31">貝氏分析</text>
</g>
<g>
	<rect x="817.3" y="526.5" class="st17" width="115.8" height="12.9"/>
	<text transform="matrix(1 0 0 1 817.3437 536.0903)" class="st25 st19 st31">機率模型</text>
</g>
<g>
	<rect x="817.3" y="492.7" class="st17" width="101.9" height="9.7"/>
	<text transform="matrix(1 0 0 1 817.3427 502.29)" class="st25 st19 st31">圖模型</text>
</g>
<rect x="810.8" y="576.2" class="st17" width="107.3" height="17"/>
<text transform="matrix(1 0 0 1 810.8284 585.8289)" class="st2 st19 st31">智慧代理</text>
<rect x="1109" y="735" class="st17" width="101.9" height="12.9"/>
<text transform="matrix(1 0 0 1 1108.9635 744.628)" class="st2 st19 st31">機器人</text>
<g>
	<rect x="1126.1" y="72.1" class="st17" width="93" height="10.2"/>
	<text transform="matrix(1 0 0 1 1126.0864 81.6755)" class="st2 st19 st31">雲端系統</text>
</g>
<rect x="1125.1" y="479.8" class="st17" width="96.3" height="28.7"/>
<g>
	<rect x="1126.5" y="90.2" class="st17" width="110" height="10.2"/>
	<text transform="matrix(1 0 0 1 1126.5347 99.7785)" class="st2 st19 st31">雲端運算</text>
</g>
<g>
	<rect x="1125.3" y="309.5" class="st17" width="111.3" height="10.2"/>
	<text transform="matrix(1 0 0 1 1125.2524 319.1164)" class="st2 st19 st31">語音辨識</text>
</g>
<g>
	<rect x="1123.9" y="358.9" class="st17" width="110" height="25.1"/>
	<text transform="matrix(1 0 0 1 1123.939 368.4641)" class="st2 st19 st31">自然語言處理</text>
</g>
<g>
	<rect x="1125.3" y="342.9" class="st17" width="93" height="10.2"/>
	<text transform="matrix(1 0 0 1 1125.2524 352.4748)" class="st2 st19 st31">文字探勘</text>
</g>
<g>
	<rect x="1125.3" y="326.9" class="st17" width="118.4" height="10.2"/>
	<text transform="matrix(1 0 0 1 1125.2524 336.4855)" class="st2 st19 st31">資訊檢索</text>
</g>
<rect x="1126" y="449.4" class="st17" width="93" height="10.2"/>
<text transform="matrix(1 0 0 1 1125.9917 458.9733)" class="st25 st19 st31">精準醫學</text>
<rect x="1126.4" y="465.2" class="st17" width="93" height="10.2"/>
<text transform="matrix(1 0 0 1 1126.439 474.7849)" class="st25 st19 st31">金融科技</text>
<rect x="1125.8" y="479.9" class="st17" width="93" height="10.2"/>
<text transform="matrix(1 0 0 1 1125.7681 489.5046)" class="st25 st19 st31">製造</text>
<rect x="1126.2" y="496.6" class="st17" width="93" height="10.2"/>
<text transform="matrix(1 0 0 1 1126.2153 506.1813)" class="st25 st19 st31">社群網路</text>
<rect x="1108.5" y="586.1" class="st17" width="110.3" height="22"/>
<text transform="matrix(1 0 0 1 1108.5278 595.6559)" class="st2 st19 st31">電腦對局</text>
<rect x="1126.4" y="432.2" class="st17" width="111.3" height="10.2"/>
<text transform="matrix(1 0 0 1 1126.439 441.8395)" class="st25 st19 st31">生物資訊</text>
<g>
	<text transform="matrix(1 0 0 1 840.9045 349.713)" class="st25 st19 st31">類神經網路</text>
</g>
<g>
	<rect x="1119.6" y="200.1" class="st17" width="120.9" height="52.7"/>
	<text transform="matrix(1 0 0 1 1119.5969 209.6503)"><tspan x="0" y="0" class="st2 st19 st31">電腦視覺</tspan><tspan x="0" y="14.5" class="st2 st32 st33">影像處理</tspan><tspan x="48.4" y="14.5" class="st2 st34 st33"> </tspan><tspan x="0" y="29.1" class="st2 st32 st33">圖形識別</tspan></text>
</g>
<g>
	<circle class="st25" cx="800.9" cy="670.2" r="4"/>
	<ellipse transform="matrix(0.2243 -0.9745 0.9745 0.2243 -46.5189 1311.9164)" class="st25" cx="800.9" cy="685.2" rx="4" ry="4"/>
	<g>
		<rect x="809.9" y="666.2" class="st17" width="139" height="106.6"/>
		<text transform="matrix(1 0 0 1 809.9349 675.771)"><tspan x="0" y="0" class="st25 st19 st31">模糊系統</tspan><tspan x="0" y="14.4" class="st25 st19 st31">最佳化理論</tspan><tspan x="0" y="28.8" class="st25 st19 st31">• 賽局理論</tspan><tspan x="0" y="43.2" class="st25 st19 st31">• 演化計算 </tspan><tspan x="0" y="57.6" class="st25 st19 st31">• 線性與非線性規劃</tspan></text>
	</g>
</g>
<circle class="st2" cx="1106.3" cy="204.7" r="4"/>
<circle class="st2" cx="1106.3" cy="219.5" r="4"/>
<circle class="st2" cx="1106.6" cy="233.3" r="4"/>
</svg>
