<?xml version="1.0" encoding="utf-8"?>
<!-- Generator: Adobe Illustrator 21.1.0, SVG Export Plug-In . SVG Version: 6.00 Build 0)  -->
<svg version="1.1" id="Layer_1" xmlns="http://www.w3.org/2000/svg" xmlns:xlink="http://www.w3.org/1999/xlink" x="0px" y="0px"
	 viewBox="0 0 1313.5 838.7" style="enable-background:new 0 0 1313.5 838.7;" xml:space="preserve">
<style type="text/css">
	.st0{fill:#FFFFFF;}
	.st1{fill:#82027E;}
	.st2{fill:none;stroke:#820C7D;stroke-width:6;stroke-miterlimit:10;}
	.st3{fill:#820C7D;}
	.st4{fill:none;stroke:#808080;stroke-width:6;stroke-linejoin:bevel;}
	.st5{fill:#808080;}
	.st6{fill:none;stroke:#808080;stroke-width:6;stroke-linecap:square;stroke-linejoin:bevel;}
	.st7{fill:none;stroke:#808080;stroke-width:6;stroke-linecap:square;stroke-linejoin:round;}
	.st8{fill:none;stroke:#808080;stroke-width:6;stroke-miterlimit:10;}
	.st9{fill:none;stroke:#FEA621;stroke-width:6;stroke-miterlimit:10;}
	.st10{fill:none;stroke:#808080;stroke-width:6;stroke-linecap:square;stroke-linejoin:bevel;stroke-miterlimit:10;}
	.st11{fill:none;stroke:#820C7D;stroke-width:6;stroke-linecap:square;stroke-linejoin:bevel;}
	.st12{fill:none;}
	.st13{fill:#1A1A1A;}
	.st14{font-family:'MyriadPro-Regular';}
	.st15{font-size:12px;}
	.st16{fill:#808080;stroke:#000000;stroke-width:0.25;stroke-miterlimit:10;}
	.st17{fill:#333333;}
	.st18{fill:#8E1385;}
	.st19{font-size:18px;}
</style>
<rect y="0" class="st0" width="1313.5" height="838.7"/>
<circle class="st1" cx="69.3" cy="468" r="12.5"/>
<g>
	<g>
		<line class="st2" x1="195.6" y1="468.2" x2="79.2" y2="468.2"/>
		<g>
			<polygon class="st3" points="187.7,461.5 194.4,468.2 187.7,475 193.4,475 200.1,468.2 193.4,461.5 			"/>
		</g>
	</g>
</g>
<g>
	<g>
		<line class="st4" x1="213" y1="61.4" x2="213" y2="446"/>
		<g>
			<polygon class="st5" points="206.3,66.4 213,63.6 219.7,66.4 213,50.6 			"/>
		</g>
		<g>
			<polygon class="st5" points="206.3,440.9 213,443.8 219.7,440.9 213,456.7 			"/>
		</g>
	</g>
</g>
<circle class="st5" cx="213" cy="39.3" r="12.5"/>
<circle class="st1" cx="212.6" cy="469.2" r="12.5"/>
<circle class="st5" cx="1077.4" cy="36.6" r="12.5"/>
<circle class="st5" cx="1079.7" cy="169.7" r="12.5"/>
<circle class="st5" cx="1077.4" cy="290.3" r="12.5"/>
<circle class="st5" cx="1077.4" cy="415.4" r="12.5"/>
<circle class="st1" cx="1077.4" cy="544" r="12.5"/>
<g>
	<g>
		<polyline class="st4" points="478.6,108.6 296.3,108.6 296.3,469.2 265.9,469.2 		"/>
		<g>
			<polygon class="st5" points="473.6,102 476.4,108.6 473.6,115.3 489.4,108.6 			"/>
		</g>
	</g>
</g>
<g>
	<g>
		<polyline class="st6" points="501.9,97.8 501.9,84.6 790.8,84.6 790.8,87.2 		"/>
		<g>
			<polygon class="st5" points="784.1,82.2 790.8,85 797.4,82.2 790.8,98 			"/>
		</g>
	</g>
</g>
<g>
	<g>
		<polyline class="st4" points="718.5,87 718.5,160.4 790.8,160.4 790.8,168.4 		"/>
		<g>
			<polygon class="st5" points="784.1,163.4 790.8,166.2 797.4,163.4 790.8,179.2 			"/>
		</g>
	</g>
</g>
<g>
	<g>
		<polyline class="st4" points="718.5,156 718.5,236.1 790.8,236.1 790.8,245.2 		"/>
		<g>
			<polygon class="st5" points="784.1,240.1 790.8,242.9 797.4,240.1 790.8,255.9 			"/>
		</g>
	</g>
</g>
<g>
	<g>
		<polyline class="st4" points="718.5,232.5 718.5,312.6 790.8,312.6 790.8,321.7 		"/>
		<g>
			<polygon class="st5" points="784.1,316.6 790.8,319.5 797.4,316.6 790.8,332.4 			"/>
		</g>
	</g>
</g>
<g>
	<g>
		<polyline class="st6" points="636.9,268.4 636.9,191.7 767.5,191.7 		"/>
		<g>
			<polygon class="st5" points="762.5,198.3 765.3,191.7 762.5,185 778.3,191.7 			"/>
		</g>
	</g>
</g>
<g>
	<g>
		<line class="st7" x1="501.9" y1="131.9" x2="501.9" y2="376"/>
		<g>
			<polygon class="st5" points="495.2,136.9 501.9,134.1 508.6,136.9 501.9,121.1 			"/>
		</g>
		<g>
			<polygon class="st5" points="495.2,370.9 501.9,373.8 508.6,370.9 501.9,386.7 			"/>
		</g>
	</g>
</g>
<g>
	<g>
		<line class="st8" x1="501.7" y1="421.9" x2="501.7" y2="659"/>
		<g>
			<polygon class="st5" points="495,426.9 501.7,424.1 508.3,426.9 501.7,411.1 			"/>
		</g>
		<g>
			<polygon class="st5" points="495,654 501.7,656.8 508.3,654 501.7,669.8 			"/>
		</g>
	</g>
</g>
<g>
	<g>
		<polyline class="st7" points="483.9,123.2 453.6,153.5 453.6,684.8 		"/>
		<g>
			<polygon class="st5" points="475.6,122 482.3,124.8 485,131.5 491.5,115.6 			"/>
		</g>
	</g>
</g>
<g>
	<g>
		<polyline class="st8" points="789.3,445.8 789.3,450.7 789.3,495.7 789.3,501.1 		"/>
		<g>
			<polygon class="st5" points="782.6,450.9 789.3,448.1 795.9,450.9 789.3,435.1 			"/>
		</g>
		<g>
			<polygon class="st5" points="782.6,496 789.3,498.8 795.9,496 789.3,511.8 			"/>
		</g>
	</g>
</g>
<g>
	<g>
		<polyline class="st8" points="768.4,204.2 739.3,216.5 739.3,403.3 768.3,414.8 		"/>
		<g>
			<polygon class="st5" points="761.1,200 766.3,205.1 766.3,212.3 778.3,200 			"/>
		</g>
		<g>
			<polygon class="st5" points="761.1,419.2 766.2,414 766,406.8 778.3,418.8 			"/>
		</g>
	</g>
</g>
<g>
	<g>
		<polyline class="st8" points="790.8,415.4 790.8,399.2 816.3,385.2 816.3,287.3 807,281.4 		"/>
		<g>
			<polygon class="st5" points="814.9,278.5 808.9,282.6 807.7,289.7 798,275.6 			"/>
		</g>
	</g>
</g>
<g>
	<g>
		<line class="st8" x1="816.3" y1="385.2" x2="804.4" y2="363.5"/>
		<g>
			<polygon class="st5" points="812.7,364.7 805.5,365.4 801,371.1 799.3,354.1 			"/>
		</g>
	</g>
</g>
<g>
	<g>
		<line class="st4" x1="803.3" y1="36.6" x2="1054.2" y2="36.6"/>
		<g>
			<polygon class="st5" points="1049.1,43.3 1052,36.6 1049.1,29.9 1064.9,36.6 			"/>
		</g>
	</g>
</g>
<path class="st9" d="M1064.9,415.4"/>
<g>
	<g>
		<polyline class="st6" points="803.3,109.1 1027.7,109.1 1027.7,251.3 1077.4,251.3 1077.4,267 		"/>
		<g>
			<polygon class="st5" points="1070.8,262 1077.4,264.8 1084.1,262 1077.4,277.8 			"/>
		</g>
	</g>
</g>
<g>
	<g>
		<polyline class="st6" points="803.3,191.7 1003.9,191.7 1003.9,290.3 1054.2,290.3 		"/>
		<g>
			<polygon class="st5" points="1049.1,296.9 1052,290.3 1049.1,283.6 1064.9,290.3 			"/>
		</g>
	</g>
</g>
<g>
	<g>
		<polyline class="st6" points="1003.9,290.3 1003.9,415.4 1054.2,415.4 		"/>
		<g>
			<polygon class="st5" points="1049.1,422.1 1052,415.4 1049.1,408.8 1064.9,415.4 			"/>
		</g>
	</g>
</g>
<g>
	<g>
		<polyline class="st6" points="1060.5,272.5 1057.3,268.4 975.3,268.4 975.3,393.3 1052.6,393.3 1060.3,399.8 		"/>
		<g>
			<polygon class="st5" points="1062.6,264.4 1059.1,270.7 1052.1,272.6 1067.2,280.9 			"/>
		</g>
		<g>
			<polygon class="st5" points="1052.1,401.7 1058.6,398.4 1060.7,391.5 1068.5,406.7 			"/>
		</g>
	</g>
</g>
<line class="st10" x1="975.3" y1="393.3" x2="975.3" y2="519"/>
<g>
	<g>
		<polyline class="st6" points="975.3,519 975.3,657.2 1052.6,657.2 1063.1,666.1 		"/>
		<g>
			<polygon class="st5" points="1054.9,667.9 1061.4,664.6 1063.5,657.7 1071.3,672.9 			"/>
		</g>
	</g>
</g>
<g>
	<g>
		<polyline class="st6" points="803.3,344.9 949.1,344.9 949.1,310.3 1055.9,310.3 1060.5,306.1 		"/>
		<g>
			<polygon class="st5" points="1061.2,314.5 1058.8,307.6 1052.3,304.6 1068.5,299 			"/>
		</g>
	</g>
</g>
<g>
	<g>
		<polyline class="st6" points="912.9,519 912.9,624.1 1102.6,624.1 1102.6,653.4 1102.6,659.6 1095.9,665.7 		"/>
		<g>
			<polygon class="st5" points="1095.2,657.4 1097.6,664.2 1104.1,667.2 1088,672.9 			"/>
		</g>
	</g>
</g>
<g>
	<g>
		<polyline class="st8" points="636.9,427.9 636.9,580.8 1077.4,580.8 1077.4,600.5 1077.4,659 		"/>
		<g>
			<polygon class="st5" points="1070.8,654 1077.4,656.8 1084.1,654 1077.4,669.8 			"/>
		</g>
	</g>
</g>
<g>
	<g>
		<polyline class="st6" points="949.1,344.9 949.1,702.5 1052.6,702.5 1062.1,697 		"/>
		<g>
			<polygon class="st5" points="1061,705.3 1060.1,698.1 1054.3,693.8 1071.3,691.6 			"/>
		</g>
	</g>
</g>
<g>
	<g>
		<line class="st7" x1="525.1" y1="682.3" x2="767.5" y2="682.3"/>
		<g>
			<polygon class="st5" points="530.2,688.9 527.4,682.3 530.2,675.6 514.4,682.3 			"/>
		</g>
		<g>
			<polygon class="st5" points="762.5,688.9 765.3,682.3 762.5,675.6 778.3,682.3 			"/>
		</g>
	</g>
</g>
<g>
	<g>
		<polyline class="st6" points="1027.7,251.3 1027.7,446.5 1077.4,446.5 1077.4,438.7 		"/>
		<g>
			<polygon class="st5" points="1084.1,443.7 1077.4,440.9 1070.8,443.7 1077.4,427.9 			"/>
		</g>
	</g>
</g>
<g>
	<g>
		<line class="st8" x1="1077.4" y1="302.8" x2="1077.4" y2="392.2"/>
		<g>
			<polygon class="st5" points="1070.8,387.1 1077.4,390 1084.1,387.1 1077.4,402.9 			"/>
		</g>
	</g>
</g>
<g>
	<g>
		<polyline class="st4" points="225.1,469.2 265.9,469.2 265.9,60.9 772.8,60.9 781.1,52.8 		"/>
		<g>
			<polygon class="st5" points="782.2,61.1 779.6,54.4 772.9,51.6 788.8,45.3 			"/>
		</g>
	</g>
</g>
<g>
	<g>
		<line class="st4" x1="225.5" y1="39.3" x2="767.5" y2="39.3"/>
		<g>
			<polygon class="st5" points="762.5,46 765.3,39.3 762.5,32.6 778.3,39.3 			"/>
		</g>
	</g>
</g>
<circle class="st5" cx="790.8" cy="38.9" r="12.5"/>
<circle class="st5" cx="790.8" cy="109.1" r="12.5"/>
<circle class="st5" cx="790.8" cy="191.7" r="12.5"/>
<circle class="st1" cx="790.8" cy="519" r="12.5"/>
<g>
	<g>
		<polyline class="st6" points="636.9,191.7 636.9,108.6 767.5,108.6 		"/>
		<g>
			<polygon class="st5" points="762.5,115.3 765.3,108.6 762.5,102 778.3,108.6 			"/>
		</g>
	</g>
</g>
<g>
	<g>
		<polyline class="st8" points="478.6,399.2 453.6,399.2 453.6,684.8 223.8,684.8 		"/>
		<g>
			<polygon class="st5" points="473.6,392.6 476.4,399.2 473.6,405.9 489.4,399.2 			"/>
		</g>
	</g>
</g>
<circle class="st1" cx="790.8" cy="268.4" r="12.5"/>
<g>
	<g>
		<line class="st11" x1="212.6" y1="492.5" x2="212.6" y2="661.5"/>
		<g>
			<polygon class="st3" points="205.9,497.5 212.6,494.7 219.2,497.5 212.6,481.7 			"/>
		</g>
		<g>
			<polygon class="st3" points="205.9,656.5 212.6,659.3 219.2,656.5 212.6,672.3 			"/>
		</g>
	</g>
</g>
<rect x="36.9" y="489.5" class="st12" width="72" height="12"/>
<text transform="matrix(1 0 0 1 36.9124 498.066)" class="st13 st14 st15">Programming</text>
<rect x="126.3" y="43.5" class="st12" width="73.5" height="25.7"/>
<text transform="matrix(1 0 0 1 126.3168 52.0277)" class="st5 st14 st15">Operating </text>
<text transform="matrix(1 0 0 1 126.3168 66.4277)" class="st5 st14 st15">Systems</text>
<rect x="240.4" y="485.1" class="st12" width="101.7" height="14.9"/>
<text transform="matrix(1 0 0 1 240.3968 493.5962)" class="st13 st14 st15">Data Structure</text>
<rect x="127.4" y="23.3" class="st12" width="73.5" height="26.3"/>
<text transform="matrix(1 0 0 1 127.3947 31.8439)" class="st5 st14 st15">Architecture </text>
<g>
	<rect x="228.5" y="589.2" class="st12" width="85.4" height="30.5"/>
	<text transform="matrix(1 0 0 1 228.4949 597.7235)" class="st13 st14 st15">Computational </text>
	<text transform="matrix(1 0 0 1 228.4949 612.1235)" class="st13 st14 st15">Mathematics</text>
</g>
<g>
	<rect x="240.4" y="620.6" class="st12" width="85.4" height="15.2"/>
	<text transform="matrix(1 0 0 1 240.3802 629.1161)" class="st13 st14 st15">Probability</text>
</g>
<g>
	<rect x="239.8" y="639.3" class="st12" width="85.4" height="15.2"/>
	<text transform="matrix(1 0 0 1 239.823 647.8153)" class="st13 st14 st15">Linear Algebra</text>
</g>
<g>
	<rect x="240.7" y="658.7" class="st12" width="85.4" height="15.2"/>
	<text transform="matrix(1 0 0 1 240.7078 667.2079)" class="st13 st14 st15">Statistics</text>
</g>
<g>
	<rect x="240.5" y="499.7" class="st12" width="58.5" height="18.1"/>
	<text transform="matrix(1 0 0 1 240.5213 508.2544)" class="st13 st14 st15">Algorithm</text>
</g>
<circle class="st5" cx="501.9" cy="108.6" r="12.5"/>
<circle class="st1" cx="501.9" cy="682.3" r="12.5"/>
<rect x="529.8" y="120.5" class="st12" width="73.5" height="12.9"/>
<text transform="matrix(1 0 0 1 529.8377 128.9712)" class="st5 st14 st15">Data Science</text>
<rect x="529.8" y="139.2" class="st12" width="73.5" height="12.9"/>
<text transform="matrix(1 0 0 1 529.8377 147.7675)" class="st5 st14 st15">Data Mining</text>
<rect x="514.4" y="364.2" class="st12" width="63.5" height="26.1"/>
<text transform="matrix(1 0 0 1 514.383 372.7199)" class="st5 st14 st15">Machine </text>
<text transform="matrix(1 0 0 1 514.383 387.1199)" class="st5 st14 st15">Learning </text>
<circle class="st16" cx="519" cy="122.7" r="4"/>
<circle class="st16" cx="519" cy="140.9" r="4"/>
<g>
	<rect x="512.7" y="642.2" class="st12" width="66.8" height="25.7"/>
	<text transform="matrix(1 0 0 1 512.7042 650.7643)" class="st13 st14 st15">Artificial </text>
	<text transform="matrix(1 0 0 1 512.7042 665.1642)" class="st13 st14 st15">Intelligence</text>
</g>
<rect x="816.3" y="61.5" class="st12" width="122.5" height="12.9"/>
<text transform="matrix(1 0 0 1 816.2673 69.9758)" class="st5 st14 st15">Parallel Algorithm </text>
<rect x="807.4" y="45.3" class="st12" width="109.1" height="13.2"/>
<text transform="matrix(1 0 0 1 820.3543 53.8602)" class="st5 st14 st15">Parallel Computing</text>
<circle class="st5" cx="810.2" cy="66.4" r="4"/>
<rect x="807.4" y="118.7" class="st12" width="161.9" height="43.9"/>
<text transform="matrix(1 0 0 1 807.3552 127.2496)" class="st5 st14 st15">Data Visualization</text>
<rect x="804.1" y="197.8" class="st12" width="129.6" height="53.4"/>
<text transform="matrix(1 0 0 1 804.111 206.3382)" class="st5 st14 st15">Big Data Analysis</text>
<text transform="matrix(1 0 0 1 804.111 220.7382)" class="st5 st14 st15">/Processing</text>
<g>
	<rect x="835.5" y="275.6" class="st12" width="86.2" height="12.2"/>
	<text transform="matrix(1 0 0 1 835.5292 284.1489)" class="st13 st14 st15">Deep Learning</text>
</g>
<g>
	<rect x="825.8" y="353.5" class="st12" width="101.9" height="23.5"/>
	<text transform="matrix(1 0 0 1 825.8336 362.0118)" class="st13 st14 st15">Reinforcement</text>
	<text transform="matrix(1 0 0 1 825.8336 376.4118)" class="st13 st14 st15">Learning</text>
</g>
<rect x="812" y="461.2" class="st12" width="73.5" height="12.9"/>
<text transform="matrix(1 0 0 1 811.968 469.7092)" class="st5 st14 st15">Bayesian</text>
<rect x="812" y="477.1" class="st12" width="115.8" height="12.9"/>
<text transform="matrix(1 0 0 1 811.969 485.5764)" class="st5 st14 st15">Probability Modeling</text>
<rect x="812" y="443.3" class="st12" width="101.9" height="9.7"/>
<text transform="matrix(1 0 0 1 811.968 451.7766)" class="st5 st14 st15">Graphical Model</text>
<g>
	<rect x="805.5" y="526.8" class="st12" width="107.3" height="17"/>
	<text transform="matrix(1 0 0 1 805.4537 535.315)" class="st13 st14 st15">Intelligence Agents</text>
</g>
<rect x="803.5" y="608" class="st12" width="116.7" height="25.2"/>
<rect x="807.7" y="655.1" class="st12" width="96.3" height="28.7"/>
<rect x="819.8" y="660.9" class="st12" width="139" height="41.6"/>
<text transform="matrix(1 0 0 1 819.7829 669.408)" class="st5 st14 st15">Evolutionary</text>
<text transform="matrix(1 0 0 1 819.7829 683.808)" class="st5 st14 st15">Computation</text>
<text transform="matrix(1 0 0 1 819.7829 698.208)" class="st5 st14 st15">Fuzzy Systems</text>
<circle class="st5" cx="810.2" cy="49.4" r="4"/>
<g>
	<g>
		<polyline class="st6" points="790.8,694.5 790.8,721.5 1077.4,721.5 1077.4,705.5 		"/>
		<g>
			<polygon class="st5" points="1084.1,710.6 1077.4,707.7 1070.8,710.6 1077.4,694.8 			"/>
		</g>
	</g>
</g>
<circle class="st5" cx="1079.7" cy="682.3" r="12.5"/>
<rect x="1103.6" y="685.6" class="st12" width="101.9" height="12.9"/>
<text transform="matrix(1 0 0 1 1103.5889 694.1141)" class="st5 st14 st15">Robotics </text>
<g>
	<rect x="1120.7" y="22.6" class="st12" width="93" height="10.2"/>
	<text transform="matrix(1 0 0 1 1120.7118 31.162)" class="st5 st14 st15">Cloud System</text>
</g>
<rect x="1119.7" y="430.4" class="st12" width="96.3" height="28.7"/>
<g>
	<rect x="1121.2" y="40.7" class="st12" width="110" height="10.2"/>
	<text transform="matrix(1 0 0 1 1121.16 49.2651)" class="st5 st14 st15">Cloud Computing</text>
</g>
<g>
	<rect x="1103.2" y="166.7" class="st12" width="93" height="10.2"/>
	<text transform="matrix(1 0 0 1 1112.3638 175.2417)" class="st5 st14 st15">Computer Vision</text>
</g>
<rect x="1119.9" y="260.1" class="st12" width="111.3" height="10.2"/>
<text transform="matrix(1 0 0 1 1119.8778 268.603)" class="st5 st14 st15">Speech Recognition</text>
<rect x="1118.6" y="309.4" class="st12" width="110" height="25.1"/>
<text transform="matrix(1 0 0 1 1118.5643 317.9506)" class="st5 st14 st15">Natural Language</text>
<text transform="matrix(1 0 0 1 1118.5643 332.3506)" class="st5 st14 st15">Processing</text>
<rect x="1119.9" y="293.4" class="st12" width="93" height="10.2"/>
<text transform="matrix(1 0 0 1 1119.8778 301.9614)" class="st5 st14 st15">Text Mining</text>
<rect x="1119.9" y="277.5" class="st12" width="118.4" height="10.2"/>
<text transform="matrix(1 0 0 1 1119.8778 285.9721)" class="st5 st14 st15">Information Retrieval</text>
<rect x="1120.6" y="399.9" class="st12" width="93" height="10.2"/>
<text transform="matrix(1 0 0 1 1120.6171 408.4594)" class="st5 st14 st15">Precise Medicine</text>
<rect x="1121.1" y="415.8" class="st12" width="93" height="10.2"/>
<text transform="matrix(1 0 0 1 1121.0643 424.2709)" class="st5 st14 st15">Fintech</text>
<rect x="1120.4" y="430.5" class="st12" width="93" height="10.2"/>
<text transform="matrix(1 0 0 1 1120.3934 438.9907)" class="st5 st14 st15">Manufacturing</text>
<rect x="1120.8" y="447.1" class="st12" width="93" height="10.2"/>
<text transform="matrix(1 0 0 1 1120.8407 455.6674)" class="st5 st14 st15">Social Networks</text>
<circle class="st5" cx="1107.2" cy="27.6" r="4"/>
<circle class="st5" cx="1107.2" cy="44.4" r="4"/>
<g>
	<rect x="1103.2" y="536.6" class="st12" width="110.3" height="22"/>
	<text transform="matrix(1 0 0 1 1103.1532 545.142)" class="st13 st14 st15">Computer Games</text>
</g>
<rect x="1121.1" y="382.8" class="st12" width="111.3" height="10.2"/>
<text transform="matrix(1 0 0 1 1121.0643 391.3261)" class="st5 st14 st15">Bioinformatics</text>
<circle class="st5" cx="790.8" cy="682" r="12.5"/>
<circle class="st1" cx="212.3" cy="684.8" r="12.5"/>
<g>
	<g>
		<polyline class="st6" points="718.5,312.6 718.5,448.1 768.1,448.1 773.3,443.2 		"/>
		<g>
			<polygon class="st5" points="774.2,451.6 771.7,444.8 765.1,441.8 781.2,435.9 			"/>
		</g>
	</g>
</g>
<g>
	<g>
		<polyline class="st4" points="525.1,108.7 615.4,108.7 615.4,74.6 789.3,74.6 792.5,74.6 792.3,62.7 		"/>
		<g>
			<polygon class="st5" points="530.2,115.3 527.4,108.7 530.2,102 514.4,108.7 			"/>
		</g>
		<g>
			<polygon class="st5" points="799,67.6 792.3,64.9 785.7,67.9 792,51.9 			"/>
		</g>
	</g>
</g>
<circle class="st5" cx="118.4" cy="29.3" r="4"/>
<circle class="st5" cx="118.4" cy="49.7" r="4"/>
<circle class="st5" cx="501.9" cy="399.2" r="12.5"/>
<circle class="st17" cx="232.5" cy="505.5" r="4"/>
<circle class="st17" cx="232.9" cy="489.7" r="4"/>
<circle class="st17" cx="232" cy="626.2" r="4"/>
<circle class="st17" cx="232" cy="645.2" r="4"/>
<circle class="st17" cx="232" cy="664.8" r="4"/>
<circle class="st5" cx="804.8" cy="447.3" r="4"/>
<circle class="st5" cx="804.8" cy="466.2" r="4"/>
<circle class="st5" cx="804.8" cy="481.7" r="4"/>
<circle class="st5" cx="810.2" cy="664.2" r="4"/>
<circle class="st5" cx="809.8" cy="693.3" r="4"/>
<circle class="st5" cx="1106.4" cy="265.2" r="4"/>
<circle class="st5" cx="1106.4" cy="282" r="4"/>
<circle class="st5" cx="1106.4" cy="313.6" r="4"/>
<circle class="st5" cx="1106.7" cy="297.9" r="4"/>
<circle class="st5" cx="1107.4" cy="402.9" r="4"/>
<circle class="st5" cx="1107.4" cy="419.8" r="4"/>
<circle class="st5" cx="1107.4" cy="451.4" r="4"/>
<circle class="st5" cx="1107.8" cy="435.6" r="4"/>
<circle class="st5" cx="1108.2" cy="386.1" r="4"/>
<circle class="st17" cx="827.6" cy="280.9" r="4"/>
<circle class="st17" cx="827.6" cy="296.5" r="4"/>
<g>
	<g>
		<polyline class="st6" points="804.3,429 1046,429 1057.7,426.1 		"/>
		<g>
			<polygon class="st5" points="1054.4,433.8 1055.5,426.6 1051.2,420.8 1068.1,423.6 			"/>
		</g>
	</g>
</g>
<circle class="st5" cx="790.8" cy="427.9" r="12.5"/>
<g>
	<circle class="st18" cx="624.8" cy="803" r="14.2"/>
	<rect x="648.8" y="798.9" class="st12" width="54.1" height="28.3"/>
	<text transform="matrix(1 0 0 1 648.8361 811.726)" class="st13 st14 st19">Core</text>
</g>
<line class="st12" x1="528.2" y1="838.7" x2="785.3" y2="838.7"/>
<g>
	<g>
		<polyline class="st6" points="767.5,268.4 636.9,268.4 636.9,399.2 592.4,399.2 514.4,399.2 		"/>
		<g>
			<polygon class="st5" points="762.5,261.7 765.3,268.4 762.5,275.1 778.3,268.4 			"/>
		</g>
	</g>
</g>
<g>
	<g>
		<line class="st6" x1="767.5" y1="344.9" x2="636.9" y2="344.9"/>
		<g>
			<polygon class="st5" points="762.5,338.3 765.3,344.9 762.5,351.6 778.3,344.9 			"/>
		</g>
	</g>
</g>
<g>
	<g>
		<polyline class="st6" points="636.9,399.2 636.9,427.9 767.5,427.9 		"/>
		<g>
			<polygon class="st5" points="762.5,434.6 765.3,427.9 762.5,421.3 778.3,427.9 			"/>
		</g>
	</g>
</g>
<g>
	<g>
		<polyline class="st6" points="803.3,268.4 975.3,268.4 975.3,169.7 975.3,150.1 975.3,135.4 975.3,126.5 1079.7,126.5 
			1079.7,146.5 		"/>
		<g>
			<polygon class="st5" points="1073,141.4 1079.7,144.3 1086.3,141.4 1079.7,157.2 			"/>
		</g>
	</g>
</g>
<g>
	<g>
		<polyline class="st6" points="803.3,427.9 927.5,427.9 927.5,156 927.5,144.8 1057.6,144.8 1064.3,152.3 		"/>
		<g>
			<polygon class="st5" points="1055.9,152.9 1062.8,150.7 1065.9,144.1 1071.3,160.4 			"/>
		</g>
	</g>
</g>
<g>
	<g>
		<polyline class="st11" points="484.5,684.8 302.7,684.8 224.8,684.8 		"/>
		<g>
			<polygon class="st3" points="479.5,678.1 482.3,684.8 479.5,691.4 495.3,684.8 			"/>
		</g>
	</g>
</g>
<g>
	<g>
		<polyline class="st11" points="586.4,377.3 790.8,377.3 790.8,368.2 		"/>
		<g>
			<polygon class="st3" points="797.4,373.2 790.8,370.4 784.1,373.2 790.8,357.4 			"/>
		</g>
	</g>
</g>
<g>
	<g>
		<line class="st11" x1="586.4" y1="519" x2="768.3" y2="519"/>
		<g>
			<polygon class="st3" points="763.2,525.6 766,519 763.2,512.3 779,519 			"/>
		</g>
	</g>
</g>
<g>
	<g>
		<polyline class="st11" points="790.8,291.6 790.8,296.7 586.4,296.7 586.4,721.5 501.9,721.5 501.9,694.8 		"/>
		<g>
			<polygon class="st3" points="784.1,296.7 790.8,293.9 797.4,296.7 790.8,280.9 			"/>
		</g>
	</g>
</g>
<g>
	<g>
		<polyline class="st11" points="803.3,519 1046.7,519 1059.9,528.8 		"/>
		<g>
			<polygon class="st3" points="1051.8,531.1 1058.1,527.5 1059.8,520.5 1068.5,535.3 			"/>
		</g>
	</g>
</g>
<g>
	<text transform="matrix(1 0 0 1 835.5299 300.2714)" class="st13 st14 st15">Neural Networks</text>
</g>
<g>
	<g>
		<polyline class="st6" points="798.3,344.9 949.1,344.9 949.1,310.3 988.7,310.3 988.7,169.7 1055.5,169.7 		"/>
		<g>
			<polygon class="st5" points="1050.4,176.4 1053.2,169.7 1050.4,163.1 1066.2,169.7 			"/>
		</g>
	</g>
</g>
<circle class="st1" cx="790.8" cy="344.9" r="12.5"/>
<g>
	<g>
		<polyline class="st11" points="1077.5,520.4 1077.5,500.1 949.1,500.1 949.1,344.9 810.8,344.9 801,344.9 		"/>
		<g>
			<polygon class="st3" points="1084.2,515.4 1077.5,518.2 1070.9,515.4 1077.5,531.2 			"/>
		</g>
	</g>
</g>
<g>
	<g>
		<polyline class="st11" points="1054.2,544 975.3,544 975.3,268.4 800.8,268.4 		"/>
		<g>
			<polygon class="st3" points="1049.1,537.3 1052,544 1049.1,550.6 1064.9,544 			"/>
		</g>
	</g>
</g>
<g>
	<g>
		<polyline class="st6" points="1062.3,435.2 1059.7,437.8 927.7,437.8 927.7,721.5 790.8,721.5 790.8,685.6 		"/>
		<g>
			<polygon class="st5" points="1054,434 1060.7,436.8 1063.3,443.5 1069.9,427.7 			"/>
		</g>
	</g>
</g>
</svg>
